<?xml version="1.0" encoding="iso-8859-1"?>
<!-- Generator: Adobe Illustrator 19.0.0, SVG Export Plug-In . SVG Version: 6.00 Build 0)  -->
<svg version="1.1" id="Capa_1" xmlns="http://www.w3.org/2000/svg" xmlns:xlink="http://www.w3.org/1999/xlink" x="0px" y="0px"
	 viewBox="0 0 460 460" style="enable-background:new 0 0 460 460;" xml:space="preserve">
<g id="XMLID_1410_">
	<rect id="XMLID_1411_" x="210" y="415" style="fill:#D9CCBC;" width="40" height="40"/>
	<path id="XMLID_1412_" style="fill:#00CCB3;" d="M230,17.005c-8.137,4.161-15.69,9.302-22.498,15.273
		C195.92,27.588,183.263,25,170,25c-52.595,0-95.704,40.603-99.697,92.174C65.443,115.768,60.313,115,55,115
		c-30.376,0-55,24.624-55,55v285h110V175h40v240h80V17.005z"/>
	<path id="XMLID_1413_" style="fill:#00AA95;" d="M405,115c-5.203,0-10.23,0.738-15,2.088V115C390,54.249,340.751,5,280,5
		c-18.007,0-34.998,4.333-50,12.005V415h80V225h40v210h110V170C460,139.624,435.376,115,405,115z"/>
	<rect id="XMLID_1414_" x="110" y="175" style="fill:#00AA95;" width="40" height="240"/>
	<rect id="XMLID_1415_" x="310" y="225" style="fill:#00CCB3;" width="40" height="190"/>
</g>
<g>
</g>
<g>
</g>
<g>
</g>
<g>
</g>
<g>
</g>
<g>
</g>
<g>
</g>
<g>
</g>
<g>
</g>
<g>
</g>
<g>
</g>
<g>
</g>
<g>
</g>
<g>
</g>
<g>
</g>
</svg>
