<?xml version="1.0" encoding="iso-8859-1"?>
<!-- Generator: Adobe Illustrator 19.0.0, SVG Export Plug-In . SVG Version: 6.00 Build 0)  -->
<svg version="1.1" id="Capa_1" xmlns="http://www.w3.org/2000/svg" xmlns:xlink="http://www.w3.org/1999/xlink" x="0px" y="0px"
	 viewBox="0 0 460 460" style="enable-background:new 0 0 460 460;" xml:space="preserve">
<g id="XMLID_1402_">
	<path id="XMLID_1403_" style="fill:#A78966;" d="M242.67,418.656c-0.543,0.117-1.091,0.22-1.64,0.321
		c-0.383,0.071-0.765,0.142-1.15,0.206c-0.484,0.08-0.97,0.153-1.458,0.222c-0.474,0.067-0.95,0.126-1.428,0.182
		c-0.43,0.05-0.86,0.1-1.293,0.14c-0.583,0.055-1.171,0.096-1.759,0.134c-0.346,0.022-0.69,0.051-1.038,0.067
		c-0.948,0.045-1.9,0.072-2.858,0.072c-0.954,0-1.903-0.028-2.849-0.072c-0.352-0.016-0.701-0.045-1.051-0.068
		c-0.581-0.038-1.161-0.078-1.738-0.132c-0.445-0.041-0.887-0.091-1.329-0.142c-0.46-0.053-0.918-0.11-1.375-0.174
		c-0.512-0.07-1.022-0.146-1.53-0.229c-0.344-0.057-0.685-0.12-1.028-0.182c-0.597-0.108-1.194-0.218-1.786-0.343
		c-0.086-0.018-0.17,0.145-0.255,0.127c-2.402-0.519-4.758-1.786-7.057-1.786c-0.002,0-0.002,43-0.002,43h40v-43.433
		c-2.168,0.768-4.395,1.409-6.669,1.926C243.141,418.547,242.907,418.605,242.67,418.656z"/>
	<path id="XMLID_1406_" style="fill:#317F46;" d="M290,360L250.046,20c0-11.046-8.954-20-20-20v420c0.958,0,1.911-0.028,2.858-0.072
		c0.348-0.016,0.692-0.045,1.038-0.067c0.588-0.038,1.176-0.079,1.759-0.134c0.433-0.041,0.863-0.09,1.293-0.14
		c0.478-0.055,0.953-0.115,1.428-0.182c0.488-0.068,0.974-0.142,1.458-0.222c0.385-0.064,0.767-0.135,1.15-0.206
		c0.549-0.102,1.097-0.205,1.64-0.321c0.237-0.051,0.471-0.11,0.708-0.163c2.275-0.517,4.501-1.158,6.669-1.926
		C273.322,408.325,290,386.117,290,360z"/>
	<path id="XMLID_1409_" style="fill:#3FA45A;" d="M217.361,418.659c0.592,0.125,1.188,0.235,1.786,0.343
		c0.342,0.062,0.684,0.126,1.028,0.182c0.508,0.083,1.019,0.158,1.53,0.229c0.457,0.063,0.915,0.121,1.375,0.174
		c0.442,0.051,0.884,0.101,1.329,0.142c0.577,0.054,1.157,0.095,1.738,0.132c0.35,0.022,0.699,0.051,1.051,0.068
		c0.946,0.044,1.895,0.072,2.849,0.072V0c-11.046,0-19.354,8.973-20,20l-39.954,340c-1.531,26.148,16.135,48.432,39.956,56.63
		c2.299,0.791,4.655,1.451,7.057,1.971C217.191,418.619,217.275,418.641,217.361,418.659z"/>
</g>
<g>
</g>
<g>
</g>
<g>
</g>
<g>
</g>
<g>
</g>
<g>
</g>
<g>
</g>
<g>
</g>
<g>
</g>
<g>
</g>
<g>
</g>
<g>
</g>
<g>
</g>
<g>
</g>
<g>
</g>
</svg>
