<?xml version="1.0" encoding="iso-8859-1"?>
<!-- Generator: Adobe Illustrator 19.0.0, SVG Export Plug-In . SVG Version: 6.00 Build 0)  -->
<svg version="1.1" id="Capa_1" xmlns="http://www.w3.org/2000/svg" xmlns:xlink="http://www.w3.org/1999/xlink" x="0px" y="0px"
	 viewBox="0 0 460 460" style="enable-background:new 0 0 460 460;" xml:space="preserve">
<g id="XMLID_1378_">
	<path id="XMLID_1379_" style="fill:#D9CCBC;" d="M242.81,389.18c-0.373,0.048-0.748,0.089-1.122,0.132
		c-0.907,0.106-1.818,0.2-2.732,0.281c-0.326,0.029-0.651,0.061-0.977,0.087c-1.144,0.091-2.293,0.161-3.447,0.213
		c-0.274,0.012-0.55,0.021-0.824,0.031C232.477,389.969,231.242,390,230,390s-2.477-0.031-3.708-0.076
		c-0.275-0.01-0.55-0.019-0.824-0.031c-1.154-0.052-2.303-0.122-3.447-0.213c-0.327-0.026-0.652-0.058-0.978-0.087
		c-0.914-0.082-1.825-0.175-2.732-0.281c-0.374-0.044-0.749-0.085-1.122-0.132c-0.969-0.124-1.932-0.266-2.892-0.418
		c-0.481-0.076-0.961-0.154-1.44-0.237c-0.957-0.166-1.911-0.341-2.858-0.533V460h40v-72.009c-0.948,0.192-1.901,0.367-2.858,0.533
		c-0.479,0.083-0.959,0.161-1.44,0.237C244.742,388.913,243.779,389.055,242.81,389.18z"/>
	<path id="XMLID_1380_" style="fill:#FF7956;" d="M369.589,128.149C369.86,125.47,370,122.751,370,120
		c0-40.927-30.74-74.653-70.387-79.405C285.865,16.362,259.851,0,230,0v390c1.242,0,2.477-0.031,3.708-0.076
		c0.275-0.01,0.55-0.019,0.824-0.031c1.154-0.052,2.303-0.122,3.447-0.213c0.327-0.026,0.652-0.058,0.977-0.087
		c0.915-0.081,1.825-0.176,2.732-0.281c0.374-0.044,0.749-0.085,1.122-0.132c0.969-0.124,1.932-0.267,2.892-0.418
		c0.481-0.076,0.961-0.154,1.44-0.237c37.136-6.417,67.26-33.305,78.312-68.632C326.961,319.96,328.476,320,330,320
		c55.229,0,100-44.772,100-100C430,178.836,405.125,143.487,369.589,128.149z M289,110c-11.046,0-20-8.954-20-20
		c0-11.046,8.954-20,20-20s20,8.954,20,20C309,101.046,300.046,110,289,110z"/>
	<path id="XMLID_1383_" style="fill:#FF9478;" d="M217.19,389.18c0.373,0.048,0.748,0.089,1.122,0.132
		c0.907,0.106,1.817,0.2,2.732,0.281c0.326,0.029,0.651,0.061,0.978,0.087c1.144,0.09,2.293,0.161,3.447,0.213
		c0.274,0.012,0.55,0.021,0.824,0.031c1.231,0.045,2.466,0.076,3.708,0.076V0c-29.851,0-55.865,16.362-69.613,40.595
		C120.74,45.347,90,79.073,90,120c0,2.751,0.14,5.47,0.411,8.149C54.875,143.487,30,178.836,30,220c0,55.228,44.771,100,100,100
		c1.524,0,3.039-0.04,4.546-0.107c11.052,35.327,41.176,62.215,78.312,68.632c0.479,0.083,0.959,0.161,1.44,0.237
		C215.258,388.913,216.221,389.056,217.19,389.18z M109,230c-11.046,0-20-8.954-20-20c0-11.046,8.954-20,20-20s20,8.954,20,20
		C129,221.046,120.046,230,109,230z M169,270c-11.046,0-20-8.954-20-20c0-11.046,8.954-20,20-20s20,8.954,20,20
		C189,261.046,180.046,270,169,270z"/>
	<circle id="XMLID_1387_" style="fill:#FF7956;" cx="169" cy="250" r="20"/>
	<circle id="XMLID_1388_" style="fill:#FF7956;" cx="109" cy="210" r="20"/>
	<circle id="XMLID_1389_" style="fill:#FF9478;" cx="289" cy="90" r="20"/>
</g>
<g>
</g>
<g>
</g>
<g>
</g>
<g>
</g>
<g>
</g>
<g>
</g>
<g>
</g>
<g>
</g>
<g>
</g>
<g>
</g>
<g>
</g>
<g>
</g>
<g>
</g>
<g>
</g>
<g>
</g>
</svg>
