<?xml version="1.0" encoding="iso-8859-1"?>
<!-- Generator: Adobe Illustrator 19.0.0, SVG Export Plug-In . SVG Version: 6.00 Build 0)  -->
<svg version="1.1" id="Capa_1" xmlns="http://www.w3.org/2000/svg" xmlns:xlink="http://www.w3.org/1999/xlink" x="0px" y="0px"
	 viewBox="0 0 460 460" style="enable-background:new 0 0 460 460;" xml:space="preserve">
<g id="XMLID_1273_">
	<path id="XMLID_1274_" style="fill:#B39A7C;" d="M210,354.639V460h40V354.639c-5.885,3.405-12.712,5.361-20,5.361
		S215.885,358.044,210,354.639z"/>
	<path id="XMLID_1283_" style="fill:#317F46;" d="M410,180c0-10.342-3.926-19.767-10.367-26.867
		c3.932-8.743,4.753-18.92,1.557-28.756c-3.196-9.836-9.842-17.586-18.162-22.349c1.038-9.531-1.326-19.463-7.405-27.83
		s-14.795-13.684-24.179-15.642c-1.958-9.385-7.276-18.1-15.642-24.179c-8.367-6.079-18.299-8.443-27.83-7.405
		c-4.762-8.32-12.513-14.966-22.349-18.162s-20.012-2.375-28.756,1.557C249.767,3.926,240.342,0,230,0v160c11.046,0,20,8.954,20,20
		c0,11.046-8.954,20-20,20v160c7.288,0,14.115-1.956,20-5.361c2.466-1.427,4.77-3.103,6.867-5.006
		c8.743,3.932,18.92,4.753,28.756,1.557c9.836-3.196,17.586-9.842,22.349-18.162c9.531,1.038,19.463-1.326,27.83-7.405
		s13.684-14.794,15.642-24.179c9.385-1.958,18.1-7.276,24.179-15.642c6.079-8.367,8.443-18.299,7.405-27.83
		c8.32-4.762,14.966-12.513,18.162-22.349c3.196-9.836,2.375-20.013-1.557-28.756C406.074,199.767,410,190.342,410,180z M290,100v40
		c-11.046,0-20-8.954-20-20C270,108.954,278.954,100,290,100z M290,300c-11.046,0-20-8.954-20-20c0-11.046,8.954-20,20-20
		s20,8.954,20,20C310,291.046,301.046,300,290,300z M291,140v-40c11.046,0,20,8.954,20,20C311,131.046,302.046,140,291,140z
		 M350,200c-11.046,0-20-8.954-20-20c0-11.046,8.954-20,20-20s20,8.954,20,20C370,191.046,361.046,200,350,200z"/>
	<path id="XMLID_1296_" style="fill:#3FA45A;" d="M230,200c-11.046,0-20-8.954-20-20c0-11.046,8.954-20,20-20V0
		c-10.342,0-19.767,3.926-26.867,10.367c-8.743-3.932-18.92-4.753-28.756-1.557s-17.586,9.842-22.349,18.162
		c-9.531-1.038-19.463,1.326-27.83,7.405c-8.367,6.079-13.684,14.795-15.642,24.179c-9.385,1.958-18.1,7.276-24.179,15.642
		s-8.443,18.299-7.405,27.83c-8.32,4.762-14.966,12.513-18.162,22.349c-3.196,9.836-2.375,20.012,1.557,28.756
		C53.926,160.233,50,169.658,50,180c0,10.342,3.926,19.767,10.367,26.867c-3.932,8.743-4.753,18.92-1.557,28.756
		c3.196,9.836,9.842,17.586,18.162,22.349c-1.038,9.531,1.326,19.463,7.405,27.83c6.079,8.367,14.795,13.684,24.179,15.642
		c1.958,9.385,7.276,18.1,15.642,24.179s18.299,8.443,27.83,7.405c4.762,8.32,12.513,14.966,22.349,18.162
		c9.836,3.196,20.012,2.375,28.756-1.557c2.097,1.902,4.401,3.578,6.867,5.006c5.885,3.405,12.712,5.361,20,5.361V200z M110,200
		c-11.046,0-20-8.954-20-20c0-11.046,8.954-20,20-20s20,8.954,20,20C130,191.046,121.046,200,110,200z M170,260
		c-11.046,0-20-8.954-20-20c0-11.046,8.954-20,20-20s20,8.954,20,20C190,251.046,181.046,260,170,260z M170,100
		c-11.046,0-20-8.954-20-20c0-11.046,8.954-20,20-20s20,8.954,20,20C190,91.046,181.046,100,170,100z"/>
	<path id="XMLID_1301_" style="fill:#FF7956;" d="M290,260v40c11.046,0,20-8.954,20-20C310,268.954,301.046,260,290,260z"/>
	<path id="XMLID_1302_" style="fill:#FF7956;" d="M350,160v40c11.046,0,20-8.954,20-20C370,168.954,361.046,160,350,160z"/>
	<path id="XMLID_1303_" style="fill:#FF7956;" d="M291,100v40c11.046,0,20-8.954,20-20C311,108.954,302.046,100,291,100z"/>
	<path id="XMLID_1304_" style="fill:#FFA733;" d="M170,60v40c11.046,0,20-8.954,20-20C190,68.954,181.046,60,170,60z"/>
	<path id="XMLID_1305_" style="fill:#FFA733;" d="M170,220v40c11.046,0,20-8.954,20-20C190,228.954,181.046,220,170,220z"/>
	<path id="XMLID_1306_" style="fill:#FFA733;" d="M110,160v40c11.046,0,20-8.954,20-20C130,168.954,121.046,160,110,160z"/>
	<path id="XMLID_1307_" style="fill:#FF9478;" d="M270,280c0,11.046,8.954,20,20,20v-40C278.954,260,270,268.954,270,280z"/>
	<path id="XMLID_1308_" style="fill:#FF9478;" d="M330,180c0,11.046,8.954,20,20,20v-40C338.954,160,330,168.954,330,180z"/>
	<path id="XMLID_1309_" style="fill:#FF9478;" d="M290,140v-40c-11.046,0-20,8.954-20,20C270,131.046,278.954,140,290,140z"/>
	<path id="XMLID_1310_" style="fill:#FF7956;" d="M250,180c0-11.046-8.954-20-20-20v40C241.046,200,250,191.046,250,180z"/>
	<path id="XMLID_1311_" style="fill:#FF9478;" d="M210,180c0,11.046,8.954,20,20,20v-40C218.954,160,210,168.954,210,180z"/>
	<path id="XMLID_1312_" style="fill:#FFC477;" d="M150,80c0,11.046,8.954,20,20,20V60C158.954,60,150,68.954,150,80z"/>
	<path id="XMLID_1313_" style="fill:#FFC477;" d="M150,240c0,11.046,8.954,20,20,20v-40C158.954,220,150,228.954,150,240z"/>
	<path id="XMLID_1314_" style="fill:#FFC477;" d="M90,180c0,11.046,8.954,20,20,20v-40C98.954,160,90,168.954,90,180z"/>
</g>
<g>
</g>
<g>
</g>
<g>
</g>
<g>
</g>
<g>
</g>
<g>
</g>
<g>
</g>
<g>
</g>
<g>
</g>
<g>
</g>
<g>
</g>
<g>
</g>
<g>
</g>
<g>
</g>
<g>
</g>
</svg>
