<?xml version="1.0" encoding="iso-8859-1"?>
<!-- Generator: Adobe Illustrator 19.0.0, SVG Export Plug-In . SVG Version: 6.00 Build 0)  -->
<svg version="1.1" id="Capa_1" xmlns="http://www.w3.org/2000/svg" xmlns:xlink="http://www.w3.org/1999/xlink" x="0px" y="0px"
	 viewBox="0 0 459 459" style="enable-background:new 0 0 459 459;" xml:space="preserve">
<g id="XMLID_1171_">
	<path id="XMLID_1172_" style="fill:#C0AB91;" d="M309,319.5c0,16.542-13.458,30-30,30h-30v-50h-40v130h40v-40h30
		c38.598,0,70-31.402,70-70v-20h-40V319.5z"/>
	<path id="XMLID_1173_" style="fill:#D9CCBC;" d="M179,329.5c-16.542,0-30-13.458-30-30h-40c0,38.598,31.402,70,70,70h30v-40H179z"
		/>
	<path id="XMLID_1174_" style="fill:#D5B4E8;" d="M229,299.5v-270c-14.055,0-26.409,7.255-33.543,18.219
		c-10.173-8.223-24.164-11.306-37.531-6.962c-13.367,4.343-22.874,15.061-26.271,27.693c-12.216-4.677-26.475-3.285-37.846,4.976
		c-11.371,8.262-17.1,21.393-16.428,34.456c-13.063-0.673-26.194,5.057-34.456,16.428c-8.262,11.371-9.653,25.63-4.976,37.846
		c-12.632,3.397-23.349,12.904-27.693,26.271c-4.404,13.554-1.173,27.749,7.309,37.955C6.966,233.575,0,245.723,0,259.5
		c0,22.091,17.909,40,40,40H229z M170,79.5c11.046,0,20,8.954,20,20s-8.954,20-20,20s-20-8.954-20-20S158.954,79.5,170,79.5z
		 M170,219.5c11.046,0,20,8.954,20,20s-8.954,20-20,20s-20-8.954-20-20S158.954,219.5,170,219.5z M110,159.5
		c-11.046,0-20-8.954-20-20s8.954-20,20-20s20,8.954,20,20S121.046,159.5,110,159.5z"/>
	<path id="XMLID_1179_" style="fill:#B87FD9;" d="M440.781,225.957c8.223-10.173,11.306-24.164,6.962-37.531
		c-4.343-13.367-15.061-22.874-27.693-26.271c4.677-12.216,3.285-26.475-4.976-37.846c-8.262-11.371-21.393-17.1-34.456-16.428
		c0.673-13.063-5.057-26.194-16.428-34.456c-11.371-8.261-25.63-9.653-37.846-4.976c-3.397-12.632-12.904-23.349-26.271-27.693
		c-13.367-4.343-27.358-1.26-37.531,6.962C255.409,36.755,243.055,29.5,229,29.5v270h190c22.091,0,40-17.909,40-40
		C459,245.445,451.744,233.091,440.781,225.957z M289,219.5c-11.046,0-20-8.954-20-20s8.954-20,20-20s20,8.954,20,20
		S300.046,219.5,289,219.5z M329,159.5c0-11.046,8.954-20,20-20s20,8.954,20,20s-8.954,20-20,20S329,170.546,329,159.5z M369,259.5
		c-11.046,0-20-8.954-20-20s8.954-20,20-20s20,8.954,20,20S380.046,259.5,369,259.5z"/>
	<circle id="XMLID_1184_" style="fill:#B87FD9;" cx="170" cy="99.5" r="20"/>
	<circle id="XMLID_1185_" style="fill:#D5B4E8;" cx="369" cy="239.5" r="20"/>
	<circle id="XMLID_1186_" style="fill:#D5B4E8;" cx="289" cy="199.5" r="20"/>
	<circle id="XMLID_1187_" style="fill:#D5B4E8;" cx="349" cy="159.5" r="20"/>
	<circle id="XMLID_1188_" style="fill:#B87FD9;" cx="110" cy="139.5" r="20"/>
	<circle id="XMLID_1189_" style="fill:#B87FD9;" cx="170" cy="239.5" r="20"/>
</g>
<g>
</g>
<g>
</g>
<g>
</g>
<g>
</g>
<g>
</g>
<g>
</g>
<g>
</g>
<g>
</g>
<g>
</g>
<g>
</g>
<g>
</g>
<g>
</g>
<g>
</g>
<g>
</g>
<g>
</g>
</svg>
