<?xml version="1.0" encoding="iso-8859-1"?>
<!-- Generator: Adobe Illustrator 19.0.0, SVG Export Plug-In . SVG Version: 6.00 Build 0)  -->
<svg version="1.1" id="Capa_1" xmlns="http://www.w3.org/2000/svg" xmlns:xlink="http://www.w3.org/1999/xlink" x="0px" y="0px"
	 viewBox="0 0 460 460" style="enable-background:new 0 0 460 460;" xml:space="preserve">
<g id="XMLID_1161_">
	<path id="XMLID_1162_" style="fill:#D9CCBC;" d="M210,307.983V390c11.046,0,20,8.954,20,20s-8.954,20-20,20v30h40v-80
		c-11,0-20-8.954-20-20s9-20,20-20v-32.017c-6.464,1.313-13.149,2.017-20,2.017S216.464,309.296,210,307.983z"/>
	<path id="XMLID_1165_" style="fill:#317F46;" d="M329.115,110.22c0.571-3.323,0.885-6.734,0.885-10.22c0-33.137-26.863-60-60-60
		c0-22.091-17.909-40-40-40v310c6.851,0,13.536-0.704,20-2.017c30.634-6.221,56.184-26.435,69.673-53.692
		C349.159,242.503,370,213.694,370,180C370,150.029,353.509,123.924,329.115,110.22z"/>
	<path id="XMLID_1168_" style="fill:#3FA45A;" d="M230,0c-22.091,0-40,17.909-40,40c-33.137,0-60,26.863-60,60
		c0,3.486,0.314,6.897,0.885,10.22C106.491,123.924,90,150.029,90,180c0,33.694,20.841,62.503,50.327,74.292
		c13.489,27.257,39.039,47.47,69.673,53.692c6.464,1.313,13.149,2.017,20,2.017V0z"/>
	<path id="XMLID_1169_" style="fill:#A78966;" d="M230,360c0,11.046,9,20,20,20v-40C239,340,230,348.954,230,360z"/>
	<path id="XMLID_1170_" style="fill:#A78966;" d="M230,410c0-11.046-8.954-20-20-20v40C221.046,430,230,421.046,230,410z"/>
</g>
<g>
</g>
<g>
</g>
<g>
</g>
<g>
</g>
<g>
</g>
<g>
</g>
<g>
</g>
<g>
</g>
<g>
</g>
<g>
</g>
<g>
</g>
<g>
</g>
<g>
</g>
<g>
</g>
<g>
</g>
</svg>
