<?xml version="1.0" encoding="iso-8859-1"?>
<!-- Generator: Adobe Illustrator 19.0.0, SVG Export Plug-In . SVG Version: 6.00 Build 0)  -->
<svg version="1.1" id="Capa_1" xmlns="http://www.w3.org/2000/svg" xmlns:xlink="http://www.w3.org/1999/xlink" x="0px" y="0px"
	 viewBox="0 0 460 460" style="enable-background:new 0 0 460 460;" xml:space="preserve">
<g id="XMLID_1107_">
	<path id="XMLID_1108_" style="fill:#008877;" d="M373.898,256.395L395,230l-21.102-26.396l16.363-29.574l-25.363-22.323
		l10.671-32.069l-29.235-16.907l3.516-33.613l-32.419-9.341l-6.007-33.245l-33.631,1.762L259.443,0L230,16.312V460h29.442
		l18.35-28.292l33.631,1.763l6.008-33.245l32.42-9.342l-3.516-33.614l29.235-16.908l-10.671-32.071l25.362-22.322L373.898,256.395z
		 M270,410c-11.046,0-20-8.954-20-20s8.954-20,20-20s20,8.954,20,20S281.046,410,270,410z M270,330c-11.046,0-20-8.954-20-20
		s8.954-20,20-20s20,8.954,20,20S281.046,330,270,330z M270,250c-11.046,0-20-8.954-20-20s8.954-20,20-20s20,8.954,20,20
		S281.046,250,270,250z M270,170c-11.046,0-20-8.954-20-20s8.954-20,20-20s20,8.954,20,20S281.046,170,270,170z M270,90
		c-11.046,0-20-8.954-20-20s8.954-20,20-20s20,8.954,20,20S281.046,90,270,90z M330,290c-11.046,0-20-8.954-20-20s8.954-20,20-20
		s20,8.954,20,20S341.046,290,330,290z M330,210c-11.046,0-20-8.954-20-20s8.954-20,20-20s20,8.954,20,20S341.046,210,330,210z"/>
	<path id="XMLID_1117_" style="fill:#00AA95;" d="M200.558,0l-18.35,28.292l-33.631-1.763l-6.008,33.245l-32.42,9.342l3.516,33.615
		L84.43,119.639l10.671,32.071l-25.362,22.322l16.363,29.574L65,230l21.102,26.396L69.739,285.97l25.363,22.323l-10.671,32.069
		l29.235,16.907l-3.516,33.613l32.419,9.341l6.007,33.245l33.631-1.762L200.557,460H230V16.312L200.558,0z M130,330
		c-11.046,0-20-8.954-20-20s8.954-20,20-20s20,8.954,20,20S141.046,330,130,330z M130,250c-11,0-20-8.954-20-20s9-20,20-20
		c11.046,0,20,8.954,20,20S141.046,250,130,250z M130,170c-11,0-20-8.954-20-20s9-20,20-20s20,8.954,20,20S141,170,130,170z
		 M190,370c-11.046,0-20-8.954-20-20s8.954-20,20-20s20,8.954,20,20S201.046,370,190,370z M190,290c-11.046,0-20-8.954-20-20
		s8.954-20,20-20s20,8.954,20,20S201.046,290,190,290z M190,210c-11,0-20-8.954-20-20s9-20,20-20s20,8.954,20,20S201,210,190,210z
		 M190,130c-11,0-20-8.954-20-20s9-20,20-20s20,8.954,20,20S201,130,190,130z"/>
	<path id="XMLID_1126_" style="fill:#FF9478;" d="M250,230c0,11.046,8.954,20,20,20v-40C258.954,210,250,218.954,250,230z"/>
	<path id="XMLID_1127_" style="fill:#FF7956;" d="M270,210v40c11.046,0,20-8.954,20-20S281.046,210,270,210z"/>
	<path id="XMLID_1128_" style="fill:#FF9478;" d="M310,190c0,11.046,8.954,20,20,20v-40C318.954,170,310,178.954,310,190z"/>
	<path id="XMLID_1129_" style="fill:#FF7956;" d="M330,170v40c11.046,0,20-8.954,20-20S341.046,170,330,170z"/>
	<path id="XMLID_1130_" style="fill:#FF9478;" d="M250,150c0,11.046,8.954,20,20,20v-40C258.954,130,250,138.954,250,150z"/>
	<path id="XMLID_1131_" style="fill:#FF7956;" d="M270,130v40c11.046,0,20-8.954,20-20S281.046,130,270,130z"/>
	<path id="XMLID_1132_" style="fill:#FF9478;" d="M250,70c0,11.046,8.954,20,20,20V50C258.954,50,250,58.954,250,70z"/>
	<path id="XMLID_1133_" style="fill:#FF7956;" d="M270,50v40c11.046,0,20-8.954,20-20S281.046,50,270,50z"/>
	<path id="XMLID_1134_" style="fill:#FF9478;" d="M250,390c0,11.046,8.954,20,20,20v-40C258.954,370,250,378.954,250,390z"/>
	<path id="XMLID_1135_" style="fill:#FF7956;" d="M270,370v40c11.046,0,20-8.954,20-20S281.046,370,270,370z"/>
	<path id="XMLID_1136_" style="fill:#FF9478;" d="M250,310c0,11.046,8.954,20,20,20v-40C258.954,290,250,298.954,250,310z"/>
	<path id="XMLID_1137_" style="fill:#FF7956;" d="M270,290v40c11.046,0,20-8.954,20-20S281.046,290,270,290z"/>
	<path id="XMLID_1138_" style="fill:#FF7956;" d="M330,250v40c11.046,0,20-8.954,20-20S341.046,250,330,250z"/>
	<path id="XMLID_1139_" style="fill:#FF9478;" d="M310,270c0,11.046,8.954,20,20,20v-40C318.954,250,310,258.954,310,270z"/>
	<path id="XMLID_1140_" style="fill:#FF728B;" d="M130,210v40c11.046,0,20-8.954,20-20S141.046,210,130,210z"/>
	<path id="XMLID_1141_" style="fill:#FFA5B5;" d="M110,230c0,11.046,9,20,20,20v-40C119,210,110,218.954,110,230z"/>
	<path id="XMLID_1142_" style="fill:#FF728B;" d="M190,170v40c11,0,20-8.954,20-20S201,170,190,170z"/>
	<path id="XMLID_1143_" style="fill:#FFA5B5;" d="M170,190c0,11.046,9,20,20,20v-40C179,170,170,178.954,170,190z"/>
	<path id="XMLID_1144_" style="fill:#FF728B;" d="M190,90v40c11,0,20-8.954,20-20S201,90,190,90z"/>
	<path id="XMLID_1145_" style="fill:#FFA5B5;" d="M170,110c0,11.046,9,20,20,20V90C179,90,170,98.954,170,110z"/>
	<path id="XMLID_1146_" style="fill:#FF728B;" d="M130,130v40c11,0,20-8.954,20-20S141,130,130,130z"/>
	<path id="XMLID_1147_" style="fill:#FFA5B5;" d="M110,150c0,11.046,9,20,20,20v-40C119,130,110,138.954,110,150z"/>
	<path id="XMLID_1148_" style="fill:#FF728B;" d="M130,290v40c11.046,0,20-8.954,20-20S141.046,290,130,290z"/>
	<path id="XMLID_1149_" style="fill:#FFA5B5;" d="M110,310c0,11.046,8.954,20,20,20v-40C118.954,290,110,298.954,110,310z"/>
	<path id="XMLID_1150_" style="fill:#FFA5B5;" d="M170,350c0,11.046,8.954,20,20,20v-40C178.954,330,170,338.954,170,350z"/>
	<path id="XMLID_1151_" style="fill:#FF728B;" d="M190,330v40c11.046,0,20-8.954,20-20S201.046,330,190,330z"/>
	<path id="XMLID_1152_" style="fill:#FFA5B5;" d="M170,270c0,11.046,8.954,20,20,20v-40C178.954,250,170,258.954,170,270z"/>
	<path id="XMLID_1153_" style="fill:#FF728B;" d="M190,250v40c11.046,0,20-8.954,20-20S201.046,250,190,250z"/>
</g>
<g>
</g>
<g>
</g>
<g>
</g>
<g>
</g>
<g>
</g>
<g>
</g>
<g>
</g>
<g>
</g>
<g>
</g>
<g>
</g>
<g>
</g>
<g>
</g>
<g>
</g>
<g>
</g>
<g>
</g>
</svg>
