<?xml version="1.0" encoding="iso-8859-1"?>
<!-- Generator: Adobe Illustrator 19.0.0, SVG Export Plug-In . SVG Version: 6.00 Build 0)  -->
<svg version="1.1" id="Capa_1" xmlns="http://www.w3.org/2000/svg" xmlns:xlink="http://www.w3.org/1999/xlink" x="0px" y="0px"
	 viewBox="0 0 461 461" style="enable-background:new 0 0 461 461;" xml:space="preserve">
<g id="XMLID_1097_">
	<path id="XMLID_1098_" style="fill:#FF9478;" d="M210.5,160v301h40V160c-7.685,0-14.692-2.893-20-7.645
		C225.192,157.107,218.185,160,210.5,160z"/>
	<path id="XMLID_1101_" style="fill:#317F46;" d="M381.421,140.283l32.666-23.086c-21.583-30.539-53.766-50.845-90.621-57.178
		c-12.697-2.182-25.424-2.615-37.904-1.363c4.697-3.334,9.697-6.31,15.003-8.841c24.108-11.499,51.252-12.922,76.432-4.005
		L390.35,8.104C355.1-4.379,317.099-2.388,283.345,13.712C262.028,23.88,244.022,38.911,230.5,57.484v50.161
		c5.308-4.752,12.315-7.645,20-7.645c16.569,0,30,13.431,30,30c0,1.121-0.067,2.225-0.186,3.314
		C310.284,150.603,330.5,182.985,330.5,220h40c0-52.303-28.835-97.991-71.439-122.023c5.85-0.028,11.745,0.453,17.631,1.465
		C343.018,103.965,366.005,118.469,381.421,140.283z"/>
	<path id="XMLID_1104_" style="fill:#3FA45A;" d="M210.5,100c7.685,0,14.692,2.893,20,7.645V57.484
		c-13.522-18.573-31.528-33.604-52.845-43.772C143.901-2.388,105.9-4.379,70.65,8.104L84.002,45.81
		c25.179-8.917,52.323-7.494,76.432,4.005c5.306,2.531,10.306,5.506,15.003,8.841c-12.479-1.252-25.207-0.819-37.904,1.363
		c-36.855,6.333-69.038,26.639-90.621,57.178l32.666,23.086c15.416-21.813,38.404-36.318,64.729-40.841
		c5.886-1.012,11.781-1.493,17.631-1.465C119.335,122.009,90.5,167.697,90.5,220h40c0-37.015,20.216-69.397,50.186-86.686
		c-0.12-1.089-0.186-2.193-0.186-3.314C180.5,113.431,193.931,100,210.5,100z"/>
	<path id="XMLID_1105_" style="fill:#B39A7C;" d="M220.5,130c0-8.884,3.864-16.862,10-22.355c-5.308-4.752-12.315-7.645-20-7.645
		c-16.569,0-30,13.431-30,30c0,1.121,0.067,2.225,0.186,3.314C182.336,148.322,195.052,160,210.5,160c7.685,0,14.692-2.893,20-7.645
		C224.364,146.862,220.5,138.884,220.5,130z"/>
	<path id="XMLID_1106_" style="fill:#A78966;" d="M250.5,100c-7.685,0-14.692,2.893-20,7.645c-6.136,5.493-10,13.471-10,22.355
		s3.864,16.862,10,22.355c5.308,4.752,12.315,7.645,20,7.645c15.448,0,28.164-11.678,29.814-26.686
		c0.12-1.089,0.186-2.193,0.186-3.314C280.5,113.431,267.069,100,250.5,100z"/>
</g>
<g>
</g>
<g>
</g>
<g>
</g>
<g>
</g>
<g>
</g>
<g>
</g>
<g>
</g>
<g>
</g>
<g>
</g>
<g>
</g>
<g>
</g>
<g>
</g>
<g>
</g>
<g>
</g>
<g>
</g>
</svg>
