<?xml version="1.0" encoding="iso-8859-1"?>
<!-- Generator: Adobe Illustrator 19.0.0, SVG Export Plug-In . SVG Version: 6.00 Build 0)  -->
<svg version="1.1" id="Capa_1" xmlns="http://www.w3.org/2000/svg" xmlns:xlink="http://www.w3.org/1999/xlink" x="0px" y="0px"
	 viewBox="0 0 460 460" style="enable-background:new 0 0 460 460;" xml:space="preserve">
<g id="XMLID_1085_">
	<path id="XMLID_1086_" style="fill:#A78966;" d="M242.672,428.523c-0.719,0.17-1.442,0.326-2.171,0.467
		c-0.092,0.018-0.182,0.037-0.274,0.054c-1.564,0.294-3.151,0.522-4.759,0.681c-0.204,0.02-0.409,0.037-0.614,0.055
		c-0.597,0.052-1.197,0.095-1.799,0.128c-0.224,0.012-0.447,0.026-0.671,0.036C231.593,429.978,230.799,430,230,430
		s-1.593-0.022-2.383-0.056c-0.224-0.01-0.447-0.023-0.671-0.036c-0.602-0.033-1.202-0.076-1.799-0.128
		c-0.205-0.018-0.41-0.034-0.614-0.055c-1.608-0.159-3.195-0.387-4.759-0.681c-0.092-0.017-0.183-0.037-0.274-0.054
		c-0.729-0.141-1.453-0.297-2.171-0.467c-0.077-0.018-0.154-0.036-0.231-0.054c-2.432-0.585-4.799-1.332-7.093-2.229
		C210,426.239,210,460,210,460h40v-33.761c-2.297,0.898-4.665,1.645-7.096,2.23C242.827,428.487,242.75,428.505,242.672,428.523z"/>
	<path id="XMLID_1087_" style="fill:#00CCB3;" d="M217.328,428.523c0.719,0.17,1.442,0.326,2.171,0.467
		c0.092,0.018,0.183,0.037,0.274,0.054c1.564,0.294,3.151,0.522,4.759,0.681c0.204,0.02,0.409,0.037,0.614,0.055
		c0.597,0.052,1.197,0.095,1.799,0.128c0.224,0.012,0.447,0.026,0.671,0.036c0.791,0.034,1.584,0.056,2.383,0.056V0
		c-21.38,0-39.897,12.208-48.998,30.025C180.668,30.019,180.336,30,180,30c-30.376,0-55,24.624-55,55
		c0,6.98,1.314,13.65,3.686,19.794C114.377,114.725,105,131.263,105,150c0,12.161,3.954,23.394,10.637,32.5
		C108.954,191.606,105,202.839,105,215s3.954,23.394,10.637,32.5C108.954,256.606,105,267.839,105,280
		c0,18.737,9.377,35.275,23.686,45.206C126.314,331.35,125,338.02,125,345c0,30.376,24.624,55,55,55
		c0.336,0,0.668-0.019,1.002-0.025c6.097,11.937,16.423,21.348,29.001,26.265c2.294,0.897,4.661,1.644,7.093,2.229
		C217.173,428.487,217.251,428.505,217.328,428.523z M150,290c-11.046,0-20-8.954-20-20s8.954-20,20-20s20,8.954,20,20
		S161.046,290,150,290z M190,350c-11.046,0-20-8.954-20-20s8.954-20,20-20s20,8.954,20,20S201.046,350,190,350z"/>
	<path id="XMLID_1091_" style="fill:#00AA95;" d="M344.363,182.5C351.046,173.394,355,162.161,355,150
		c0-18.737-9.377-35.275-23.686-45.206C333.686,98.65,335,91.98,335,85c0-30.376-24.624-55-55-55c-0.336,0-0.668,0.019-1.002,0.025
		C269.897,12.208,251.38,0,230,0v430c0.799,0,1.593-0.022,2.383-0.056c0.224-0.01,0.447-0.024,0.671-0.036
		c0.602-0.033,1.202-0.076,1.799-0.128c0.205-0.018,0.41-0.035,0.614-0.055c1.608-0.159,3.195-0.387,4.759-0.681
		c0.092-0.017,0.183-0.037,0.274-0.054c0.729-0.141,1.453-0.297,2.171-0.467c0.077-0.018,0.154-0.036,0.231-0.054
		c2.432-0.585,4.799-1.332,7.093-2.229c12.579-4.917,22.905-14.329,29.001-26.265c0.335,0.006,0.666,0.025,1.002,0.025
		c30.376,0,55-24.624,55-55c0-6.98-1.314-13.65-3.686-19.794C345.623,315.275,355,298.737,355,280
		c0-12.161-3.954-23.394-10.637-32.5C351.046,238.394,355,227.161,355,215S351.046,191.606,344.363,182.5z M310,230
		c-11.046,0-20-8.954-20-20s8.954-20,20-20s20,8.954,20,20S321.046,230,310,230z"/>
	<circle id="XMLID_1094_" style="fill:#00CCB3;" cx="310" cy="210" r="20"/>
	<circle id="XMLID_1095_" style="fill:#00AA95;" cx="190" cy="330" r="20"/>
	<circle id="XMLID_1096_" style="fill:#00AA95;" cx="150" cy="270" r="20"/>
</g>
<g>
</g>
<g>
</g>
<g>
</g>
<g>
</g>
<g>
</g>
<g>
</g>
<g>
</g>
<g>
</g>
<g>
</g>
<g>
</g>
<g>
</g>
<g>
</g>
<g>
</g>
<g>
</g>
<g>
</g>
</svg>
