<?xml version="1.0" encoding="iso-8859-1"?>
<!-- Generator: Adobe Illustrator 19.0.0, SVG Export Plug-In . SVG Version: 6.00 Build 0)  -->
<svg version="1.1" id="Capa_1" xmlns="http://www.w3.org/2000/svg" xmlns:xlink="http://www.w3.org/1999/xlink" x="0px" y="0px"
	 viewBox="0 0 460 460" style="enable-background:new 0 0 460 460;" xml:space="preserve">
<g id="XMLID_1071_">
	<path id="XMLID_1072_" style="fill:#FF9478;" d="M200,250l-6.681,140.298C202.781,391.882,210,400.088,210,410
		c0,10.562-8.193,19.191-18.568,19.928l1.258-26.42L190,460h40V250H200z"/>
	<path id="XMLID_1073_" style="fill:#FF7956;" d="M250,370c0-9.242,6.278-16.998,14.796-19.292L260,250h-30v210h40l-3.348-70.302
		C257.204,388.102,250,379.902,250,370z"/>
	<path id="XMLID_1074_" style="fill:#FF9478;" d="M250,370c0,9.902,7.204,18.102,16.652,19.698l-1.857-38.99
		C256.278,353.002,250,360.758,250,370z"/>
	<path id="XMLID_1075_" style="fill:#FF7956;" d="M210,410c0-9.912-7.219-18.118-16.681-19.702l-1.887,39.63
		C201.807,429.191,210,420.562,210,410z"/>
	<polygon id="XMLID_1076_" style="fill:#00AA95;" points="230,0 170,90 208.333,90 155,170 193.333,170 140,250 230,250 	"/>
	<polygon id="XMLID_1077_" style="fill:#008877;" points="320,250 266.667,170 305,170 251.667,90 290,90 230,0 230,250 	"/>
</g>
<g>
</g>
<g>
</g>
<g>
</g>
<g>
</g>
<g>
</g>
<g>
</g>
<g>
</g>
<g>
</g>
<g>
</g>
<g>
</g>
<g>
</g>
<g>
</g>
<g>
</g>
<g>
</g>
<g>
</g>
</svg>
