<?xml version="1.0" encoding="iso-8859-1"?>
<!-- Generator: Adobe Illustrator 19.0.0, SVG Export Plug-In . SVG Version: 6.00 Build 0)  -->
<svg version="1.1" id="Capa_1" xmlns="http://www.w3.org/2000/svg" xmlns:xlink="http://www.w3.org/1999/xlink" x="0px" y="0px"
	 viewBox="0 0 460 460" style="enable-background:new 0 0 460 460;" xml:space="preserve">
<g id="XMLID_1066_">
	<polygon id="XMLID_1067_" style="fill:#00AA95;" points="230,0 200,70 215.714,70 190,130 205.714,130 180,190 195.714,190 
		170,250 210,250 230,250 	"/>
	<polygon id="XMLID_1068_" style="fill:#008877;" points="250,250 290,250 264.286,190 280,190 254.286,130 270,130 244.286,70 
		260,70 230,0 230,250 	"/>
	<path id="XMLID_1069_" style="fill:#FF9478;" d="M250,425.385V250h-20h-20v175.385c-11.953,6.938-20,19.874-20,34.615h20
		c0-11,8.954-20,20-20s20,9,20,20h20C270,445.258,261.953,432.322,250,425.385z"/>
	<path id="XMLID_1070_" style="fill:#FF7956;" d="M230,440c-11.046,0-20,9-20,20h40C250,449,241.046,440,230,440z"/>
</g>
<g>
</g>
<g>
</g>
<g>
</g>
<g>
</g>
<g>
</g>
<g>
</g>
<g>
</g>
<g>
</g>
<g>
</g>
<g>
</g>
<g>
</g>
<g>
</g>
<g>
</g>
<g>
</g>
<g>
</g>
</svg>
