<?xml version="1.0" encoding="iso-8859-1"?>
<!-- Generator: Adobe Illustrator 19.0.0, SVG Export Plug-In . SVG Version: 6.00 Build 0)  -->
<svg version="1.1" id="Capa_1" xmlns="http://www.w3.org/2000/svg" xmlns:xlink="http://www.w3.org/1999/xlink" x="0px" y="0px"
	 viewBox="0 0 450 450" style="enable-background:new 0 0 450 450;" xml:space="preserve">
<g id="XMLID_1043_">
	<path id="XMLID_1046_" style="fill:#FFDE55;" d="M270,315h-20v-30h-40v100h40v-30h20c38.598,0,70-31.402,70-70h-40
		C300,301.542,286.542,315,270,315z"/>
	<path id="XMLID_1049_" style="fill:#FFEB99;" d="M192.489,315C175.182,315,160,300.981,160,285h-40c0,37.944,33.196,70,72.489,70
		H210v-40H192.489z"/>
	<path id="XMLID_1050_" style="fill:#FFA5B5;" d="M160.916,129.62c10.816-4.062,23.297-3.431,34.084,2.797
		s17.574,16.721,19.464,28.119c11.398,1.89,21.892,8.677,28.119,19.464c6.228,10.787,6.859,23.268,2.797,34.084
		C254.306,221.42,260,232.544,260,245c0,22.091-17.909,40-40,40h50V65c-13.385,0-25.226,6.581-32.487,16.677
		c-10.572-6.549-24.03-8.098-36.396-2.975s-20.787,15.734-23.632,27.84c-12.058-1.969-24.836,1.6-34.256,10.701
		C150.212,119.69,156.311,124.017,160.916,129.62z"/>
	<path id="XMLID_1051_" style="fill:#FF728B;" d="M433.323,212.513c6.549-10.572,8.098-24.03,2.975-36.396
		c-5.122-12.366-15.734-20.787-27.84-23.632c2.005-12.273-1.715-25.299-11.179-34.764c-9.465-9.465-22.491-13.184-34.764-11.179
		c-2.845-12.106-11.266-22.718-23.632-27.84s-25.824-3.573-36.396,2.975C295.226,71.581,283.385,65,270,65v220h140
		c22.091,0,40-17.909,40-40C450,231.615,443.419,219.774,433.323,212.513z M310,245c-11.046,0-20-8.954-20-20s8.954-20,20-20
		s20,8.954,20,20S321.046,245,310,245z M370,205c-11.046,0-20-8.954-20-20s8.954-20,20-20s20,8.954,20,20S381.046,205,370,205z"/>
	<path id="XMLID_1055_" style="fill:#FFA5B5;" d="M130,205c-11.046,0-20-8.954-20-20s8.954-20,20-20v-50
		c-12.455,0-23.58,5.694-30.916,14.62c-10.816-4.062-23.297-3.431-34.084,2.797s-17.574,16.721-19.464,28.119
		c-11.398,1.89-21.892,8.677-28.119,19.464c-6.228,10.787-6.859,23.268-2.797,34.084C5.694,221.42,0,232.544,0,245
		c0,22.091,17.909,40,40,40h90V205z M70,245c-11.046,0-20-8.954-20-20s8.954-20,20-20s20,8.954,20,20S81.046,245,70,245z"/>
	<path id="XMLID_1058_" style="fill:#FF728B;" d="M130,165c11.046,0,20,8.954,20,20s-8.954,20-20,20v80h90c22.091,0,40-17.909,40-40
		c0-12.456-5.694-23.58-14.62-30.916c4.062-10.816,3.431-23.297-2.797-34.084c-6.228-10.787-16.721-17.574-28.119-19.464
		c-1.89-11.398-8.677-21.891-19.464-28.119s-23.268-6.859-34.084-2.797c-4.605-5.603-10.704-9.93-17.687-12.377
		C139.088,115.792,134.637,115,130,115V165z M190,205c11.046,0,20,8.954,20,20s-8.954,20-20,20s-20-8.954-20-20S178.954,205,190,205
		z"/>
	<circle id="XMLID_1061_" style="fill:#FFFFFF;" cx="70" cy="225" r="20"/>
	<circle id="XMLID_1062_" style="fill:#FFFFFF;" cx="190" cy="225" r="20"/>
	<circle id="XMLID_1063_" style="fill:#FFFFFF;" cx="130" cy="185" r="20"/>
	<circle id="XMLID_1064_" style="fill:#FFFFFF;" cx="310" cy="225" r="20"/>
	<circle id="XMLID_1065_" style="fill:#FFFFFF;" cx="370" cy="185" r="20"/>
</g>
<g>
</g>
<g>
</g>
<g>
</g>
<g>
</g>
<g>
</g>
<g>
</g>
<g>
</g>
<g>
</g>
<g>
</g>
<g>
</g>
<g>
</g>
<g>
</g>
<g>
</g>
<g>
</g>
<g>
</g>
</svg>
