<?xml version="1.0" encoding="iso-8859-1"?>
<!-- Generator: Adobe Illustrator 19.0.0, SVG Export Plug-In . SVG Version: 6.00 Build 0)  -->
<svg version="1.1" id="Capa_1" xmlns="http://www.w3.org/2000/svg" xmlns:xlink="http://www.w3.org/1999/xlink" x="0px" y="0px"
	 viewBox="0 0 460 460" style="enable-background:new 0 0 460 460;" xml:space="preserve">
<g id="XMLID_1024_">
	<path id="XMLID_1025_" style="fill:#B39A7C;" d="M300,220v10c0,16.542-13.458,30-30,30h-60v150h40V300h20c38.598,0,70-31.402,70-70
		v-10H300z"/>
	<path id="XMLID_1026_" style="fill:#C0AB91;" d="M192.489,260C175.182,260,160,245.981,160,230v-10h-40v10
		c0,37.944,33.196,70,72.489,70H210v-40H192.489z"/>
	<path id="XMLID_1027_" style="fill:#FFC477;" d="M242.583,115c6.228,10.787,6.859,23.268,2.797,34.084
		c1.973,1.622,3.777,3.438,5.408,5.403C253.183,146.125,260.869,140,270,140c11.046,0,20,8.954,20,20s-8.954,20-20,20
		c-3.691,0-7.136-1.017-10.104-2.761c0.062,0.913,0.104,1.832,0.104,2.761c0,18.638-12.748,34.299-30,38.74
		c3.196,0.823,6.547,1.26,10,1.26h90v-80c-11.046,0-20-8.954-20-20s8.954-20,20-20V50c-12.455,0-23.58,5.694-30.916,14.62
		c-10.816-4.062-23.297-3.431-34.084,2.797s-17.574,16.721-19.464,28.119c-5.52,0.916-10.822,2.989-15.536,6.1
		C235.02,104.948,239.372,109.437,242.583,115z"/>
	<path id="XMLID_1028_" style="fill:#FFA5B5;" d="M445.38,149.084c4.062-10.816,3.431-23.297-2.797-34.084
		c-6.228-10.787-16.721-17.574-28.119-19.464c-1.89-11.398-8.677-21.891-19.464-28.119s-23.268-6.859-34.084-2.797
		C353.58,55.694,342.455,50,330,50v50c11.046,0,20,8.954,20,20s-8.954,20-20,20v80h90c22.091,0,40-17.909,40-40
		C460,167.544,454.306,156.42,445.38,149.084z M390,180c-11.046,0-20-8.954-20-20s8.954-20,20-20s20,8.954,20,20
		S401.046,180,390,180z"/>
	<path id="XMLID_1031_" style="fill:#FFFFFF;" d="M290,160c0-11.046-8.954-20-20-20c-9.131,0-16.817,6.125-19.212,14.487
		c5.196,6.262,8.52,14.128,9.109,22.752C262.864,178.983,266.309,180,270,180C281.046,180,290,171.046,290,160z"/>
	<circle id="XMLID_1032_" style="fill:#FFFFFF;" cx="390" cy="160" r="20"/>
	<circle id="XMLID_1033_" style="fill:#FFFFFF;" cx="330" cy="120" r="20"/>
	<path id="XMLID_1034_" style="fill:#FFC477;" d="M130,140c-11.046,0-20-8.954-20-20s8.954-20,20-20V50
		c-12.455,0-23.58,5.694-30.916,14.62C88.268,60.558,75.787,61.189,65,67.417S47.426,84.138,45.536,95.536
		c-11.398,1.89-21.892,8.677-28.119,19.464c-6.228,10.787-6.859,23.268-2.797,34.084C5.694,156.42,0,167.544,0,180
		c0,22.091,17.909,40,40,40h90V140z M70,180c-11.046,0-20-8.954-20-20s8.954-20,20-20s20,8.954,20,20S81.046,180,70,180z"/>
	<path id="XMLID_1037_" style="fill:#FFA5B5;" d="M150,120c0,11.046-8.954,20-20,20v80h90c3.453,0,6.804-0.438,10-1.26
		c17.252-4.44,30-20.102,30-38.74c0-0.929-0.042-1.848-0.104-2.761c-0.589-8.624-3.912-16.49-9.109-22.752
		c-1.631-1.965-3.435-3.781-5.408-5.403c4.062-10.816,3.431-23.297-2.797-34.084c-3.212-5.563-7.564-10.052-12.583-13.365
		c-4.714-3.11-10.016-5.184-15.536-6.1c-1.89-11.398-8.677-21.891-19.464-28.119s-23.268-6.859-34.084-2.797
		C153.58,55.694,142.455,50,130,50v50C141.046,100,150,108.954,150,120z M190,140c11.046,0,20,8.954,20,20s-8.954,20-20,20
		s-20-8.954-20-20S178.954,140,190,140z"/>
	<circle id="XMLID_1040_" style="fill:#FFFFFF;" cx="70" cy="160" r="20"/>
	<circle id="XMLID_1041_" style="fill:#FFFFFF;" cx="190" cy="160" r="20"/>
	<circle id="XMLID_1042_" style="fill:#FFFFFF;" cx="130" cy="120" r="20"/>
</g>
<g>
</g>
<g>
</g>
<g>
</g>
<g>
</g>
<g>
</g>
<g>
</g>
<g>
</g>
<g>
</g>
<g>
</g>
<g>
</g>
<g>
</g>
<g>
</g>
<g>
</g>
<g>
</g>
<g>
</g>
</svg>
