<?xml version="1.0" encoding="iso-8859-1"?>
<!-- Generator: Adobe Illustrator 19.0.0, SVG Export Plug-In . SVG Version: 6.00 Build 0)  -->
<svg version="1.1" id="Capa_1" xmlns="http://www.w3.org/2000/svg" xmlns:xlink="http://www.w3.org/1999/xlink" x="0px" y="0px"
	 viewBox="0 0 460 460" style="enable-background:new 0 0 460 460;" xml:space="preserve">
<g id="XMLID_988_">
	<path id="XMLID_991_" style="fill:#317F46;" d="M420,300c0,16.542-13.458,30-30,30h-41.768c-11.255,23.628-35.365,40-63.232,40h-15
		v90h40v-90h80c38.599,0,70-31.402,70-70v-20h-40V300z"/>
	<path id="XMLID_994_" style="fill:#3FA45A;" d="M175,370c-27.867,0-51.976-16.372-63.232-40H70c-16.542,0-30-13.458-30-30v-20H0v20
		c0,38.598,31.401,70,70,70h80v90h40v-90H175z"/>
	<path id="XMLID_997_" style="fill:#317F46;" d="M230,330h-55c-16.542,0-30-13.458-30-30v-20h-40v20c0,10.731,2.434,20.902,6.768,30
		c11.255,23.628,35.365,40,63.232,40h15v90h40V330z"/>
	<path id="XMLID_1000_" style="fill:#3FA45A;" d="M285,370c27.867,0,51.977-16.372,63.232-40c4.334-9.098,6.768-19.269,6.768-30v-20
		h-40v20c0,16.542-13.458,30-30,30h-35v-50h-40v50h20v130h40v-90H285z"/>
	<path id="XMLID_1001_" style="fill:#008877;" d="M410,185c0,0,0-15.25,0-40s-22.5-45-50-45h-0.217C344.666,42.451,292.293,0,230,0
		v280h230v-50C460,205.25,437.5,185,410,185z M300,240c-11.046,0-20-8.954-20-20s8.954-20,20-20s20,8.954,20,20S311.046,240,300,240
		z M350,180c-11.046,0-20-8.954-20-20s8.954-20,20-20s20,8.954,20,20S361.046,180,350,180z"/>
	<path id="XMLID_1005_" style="fill:#00AA95;" d="M230,280V0c-62.293,0-114.666,42.451-129.783,100H100c-27.5,0-50,20.25-50,45
		s0,40,0,40c-27.5,0-50,20.25-50,45v50H230z M160,110c11.046,0,20,8.954,20,20s-8.954,20-20,20s-20-8.954-20-20S148.954,110,160,110
		z"/>
	<circle id="XMLID_1008_" style="fill:#008877;" cx="160" cy="130" r="20"/>
	<circle id="XMLID_1009_" style="fill:#00AA95;" cx="300" cy="220" r="20"/>
	<circle id="XMLID_1010_" style="fill:#00AA95;" cx="350" cy="160" r="20"/>
</g>
<g>
</g>
<g>
</g>
<g>
</g>
<g>
</g>
<g>
</g>
<g>
</g>
<g>
</g>
<g>
</g>
<g>
</g>
<g>
</g>
<g>
</g>
<g>
</g>
<g>
</g>
<g>
</g>
<g>
</g>
</svg>
