<?xml version="1.0" encoding="iso-8859-1"?>
<!-- Generator: Adobe Illustrator 19.0.0, SVG Export Plug-In . SVG Version: 6.00 Build 0)  -->
<svg version="1.1" id="Capa_1" xmlns="http://www.w3.org/2000/svg" xmlns:xlink="http://www.w3.org/1999/xlink" x="0px" y="0px"
	 viewBox="0 0 460 460" style="enable-background:new 0 0 460 460;" xml:space="preserve">
<g id="XMLID_984_">
	<path id="XMLID_985_" style="fill:#D9CCBC;" d="M210,386.573V460h40v-73.427c-6.257,2.212-12.985,3.427-20,3.427
		S216.257,388.785,210,386.573z"/>
	<path id="XMLID_986_" style="fill:#00CCB3;" d="M230,0c-11.05,0-20,8.95-20,20v20c0-11.05-8.95-20-20-20s-20,8.95-20,20v140
		c-11.046,0-20,8.954-20,20v110c0,11.046,8.954,20,20,20c0,26.125,16.698,48.336,40,56.573c6.257,2.212,12.985,3.427,20,3.427V0z"/>
	<path id="XMLID_987_" style="fill:#00AA95;" d="M290,180V40c0-11.05-8.95-20-20-20s-20,8.95-20,20V20c0-11.05-8.95-20-20-20v390
		c7.015,0,13.743-1.215,20-3.427c23.302-8.237,40-30.448,40-56.573c11.046,0,20-8.954,20-20V200C310,188.954,301.046,180,290,180z"
		/>
</g>
<g>
</g>
<g>
</g>
<g>
</g>
<g>
</g>
<g>
</g>
<g>
</g>
<g>
</g>
<g>
</g>
<g>
</g>
<g>
</g>
<g>
</g>
<g>
</g>
<g>
</g>
<g>
</g>
<g>
</g>
</svg>
