<?xml version="1.0" encoding="iso-8859-1"?>
<!-- Generator: Adobe Illustrator 19.0.0, SVG Export Plug-In . SVG Version: 6.00 Build 0)  -->
<svg version="1.1" id="Capa_1" xmlns="http://www.w3.org/2000/svg" xmlns:xlink="http://www.w3.org/1999/xlink" x="0px" y="0px"
	 viewBox="0 0 460 460" style="enable-background:new 0 0 460 460;" xml:space="preserve">
<g id="XMLID_926_">
	<path id="XMLID_927_" style="fill:#FFA733;" d="M210,318.758V460h40V318.758c-6.552,0.817-13.226,1.242-20,1.242
		S216.552,319.575,210,318.758z"/>
	<path id="XMLID_933_" style="fill:#317F46;" d="M370,170c0-10.942,8.78-19.812,19.681-19.984C384.525,66.303,315.011,0,230,0v30
		c11.05,0,20,8.95,20,20v60c0,11.05-8.95,20-20,20v40c11.05,0,20,8.95,20,20v60c0,11.05-8.95,20-20,20v50
		c6.774,0,13.448-0.425,20-1.242c13.728-1.712,26.913-5.165,39.333-10.128V250c0-11.05,8.95-20,20-20c11.05,0,20,8.95,20,20v35.43
		c16.989-13.473,31.179-30.321,41.551-49.536C370.311,234.031,370,232.052,370,230V170z M329.333,170c0,11.05-8.95,20-20,20
		c-11.05,0-20-8.95-20-20v-60c0-11.05,8.95-20,20-20c11.05,0,20,8.95,20,20V170z"/>
	<path id="XMLID_941_" style="fill:#3FA45A;" d="M230,270c-11.05,0-20-8.95-20-20v-60c0-11.05,8.95-20,20-20v-40
		c-11.05,0-20-8.95-20-20V50c0-11.05,8.95-20,20-20V0C144.989,0,75.475,66.303,70.319,150.016C81.22,150.188,90,159.058,90,170v60
		c0,2.052-0.311,4.031-0.885,5.894c10.373,19.215,24.562,36.063,41.551,49.536V250c0-11.05,8.95-20,20-20c11.05,0,20,8.95,20,20
		v58.63c12.42,4.963,25.606,8.416,39.333,10.128c6.552,0.817,13.226,1.242,20,1.242V270z M170.667,170c0,11.05-8.95,20-20,20
		c-11.05,0-20-8.95-20-20v-60c0-11.05,8.95-20,20-20c11.05,0,20,8.95,20,20V170z"/>
	<path id="XMLID_944_" style="fill:#FFA733;" d="M309.333,90v100c11.05,0,20-8.95,20-20v-60C329.333,98.95,320.383,90,309.333,90z"
		/>
	<path id="XMLID_945_" style="fill:#FFC477;" d="M289.333,110v60c0,11.05,8.95,20,20,20V90C298.283,90,289.333,98.95,289.333,110z"
		/>
	<path id="XMLID_946_" style="fill:#FFA733;" d="M250,110V50c0-11.05-8.95-20-20-20v100C241.05,130,250,121.05,250,110z"/>
	<path id="XMLID_947_" style="fill:#FFC477;" d="M210,50v60c0,11.05,8.95,20,20,20V30C218.95,30,210,38.95,210,50z"/>
	<path id="XMLID_948_" style="fill:#FFA733;" d="M390,150v100c11.05,0,20-8.95,20-20v-60C410,158.95,401.05,150,390,150z"/>
	<path id="XMLID_949_" style="fill:#FFC477;" d="M390,150c-0.108,0-0.212,0.014-0.319,0.016C378.78,150.188,370,159.058,370,170v60
		c0,2.052,0.311,4.031,0.885,5.894C373.399,244.064,381.002,250,390,250V150z"/>
	<path id="XMLID_950_" style="fill:#FFA733;" d="M309.333,230v100c11.05,0,20-8.95,20-20v-60
		C329.333,238.95,320.383,230,309.333,230z"/>
	<path id="XMLID_951_" style="fill:#FFC477;" d="M309.333,230c-11.05,0-20,8.95-20,20v60c0,11.05,8.95,20,20,20V230z"/>
	<path id="XMLID_954_" style="fill:#FFEB99;" d="M130.667,110v60c0,11.05,8.95,20,20,20V90C139.617,90,130.667,98.95,130.667,110z"
		/>
	<path id="XMLID_957_" style="fill:#FFDE55;" d="M150.667,90v100c11.05,0,20-8.95,20-20v-60C170.667,98.95,161.717,90,150.667,90z"
		/>
	<path id="XMLID_960_" style="fill:#FFEB99;" d="M70,150c-11.05,0-20,8.95-20,20v60c0,11.05,8.95,20,20,20V150z"/>
	<path id="XMLID_963_" style="fill:#FFDE55;" d="M90,170c0-10.942-8.78-19.812-19.681-19.984C70.212,150.014,70.108,150,70,150v100
		c8.998,0,16.601-5.936,19.115-14.106C89.689,234.031,90,232.052,90,230V170z"/>
	<path id="XMLID_966_" style="fill:#FFEB99;" d="M150.667,230c-11.05,0-20,8.95-20,20v60c0,11.05,8.95,20,20,20V230z"/>
	<path id="XMLID_969_" style="fill:#FFDE55;" d="M150.667,230v100c11.05,0,20-8.95,20-20v-60
		C170.667,238.95,161.717,230,150.667,230z"/>
	<path id="XMLID_970_" style="fill:#FFA733;" d="M250,250v-60c0-11.05-8.95-20-20-20v100C241.05,270,250,261.05,250,250z"/>
	<path id="XMLID_971_" style="fill:#FFC477;" d="M210,190v60c0,11.05,8.95,20,20,20V170C218.95,170,210,178.95,210,190z"/>
</g>
<g>
</g>
<g>
</g>
<g>
</g>
<g>
</g>
<g>
</g>
<g>
</g>
<g>
</g>
<g>
</g>
<g>
</g>
<g>
</g>
<g>
</g>
<g>
</g>
<g>
</g>
<g>
</g>
<g>
</g>
</svg>
