<?xml version="1.0" encoding="iso-8859-1"?>
<!-- Generator: Adobe Illustrator 19.0.0, SVG Export Plug-In . SVG Version: 6.00 Build 0)  -->
<svg version="1.1" id="Capa_1" xmlns="http://www.w3.org/2000/svg" xmlns:xlink="http://www.w3.org/1999/xlink" x="0px" y="0px"
	 viewBox="0 0 460 460" style="enable-background:new 0 0 460 460;" xml:space="preserve">
<g id="XMLID_890_">
	
		<line id="XMLID_891_" style="fill:none;stroke:#CCA400;stroke-width:0;stroke-linecap:round;stroke-linejoin:round;" x1="350.203" y1="126.032" x2="350.203" y2="125"/>
	<path id="XMLID_892_" style="fill:#FFA733;" d="M350.2,270c0,16.54-13.46,30-30,30h-23.398v-30h-40v30H230v80h40v-40h50.2
		c38.6,0,70-31.4,70-70H350.2z"/>
	<path id="XMLID_893_" style="fill:#FFC477;" d="M203.401,300v-30h-40v30H140c-16.542,0-30-13.458-30-30H70
		c0,38.599,31.402,70,70,70h50v40h40v-80H203.401z"/>
	<path id="XMLID_900_" style="fill:#317F46;" d="M460,230c0-24.75-22.5-45-50-45h-16.33c-10.351-22.552-25.23-42.592-43.467-58.968
		C318.333,97.416,276.201,80,230,80v190h230C460,270,460,254.75,460,230z M280,170c-11.05,0-20-8.95-20-20s8.95-20,20-20
		s20,8.95,20,20S291.05,170,280,170z M330,230c-11.05,0-20-8.95-20-20s8.95-20,20-20s20,8.95,20,20S341.05,230,330,230z"/>
	<path id="XMLID_910_" style="fill:#3FA45A;" d="M230,270V80c-46.104,0-88.155,17.343-120,45.851
		C91.671,142.26,76.719,162.365,66.33,185H50c-27.5,0-50,20.25-50,45s0,40,0,40H230z M180,130c11.05,0,20,8.95,20,20s-8.95,20-20,20
		s-20-8.95-20-20S168.95,130,180,130z M130,190c11.05,0,20,8.95,20,20s-8.95,20-20,20s-20-8.95-20-20S118.95,190,130,190z"/>
	<path id="XMLID_916_" style="fill:#317F46;" d="M180,130c-11.05,0-20,8.95-20,20s8.95,20,20,20s20-8.95,20-20S191.05,130,180,130z"
		/>
	<path id="XMLID_919_" style="fill:#317F46;" d="M130,190c-11.05,0-20,8.95-20,20s8.95,20,20,20s20-8.95,20-20S141.05,190,130,190z"
		/>
	<path id="XMLID_922_" style="fill:#3FA45A;" d="M280,130c-11.05,0-20,8.95-20,20s8.95,20,20,20s20-8.95,20-20S291.05,130,280,130z"
		/>
	<path id="XMLID_925_" style="fill:#3FA45A;" d="M330,190c-11.05,0-20,8.95-20,20s8.95,20,20,20s20-8.95,20-20S341.05,190,330,190z"
		/>
</g>
<g>
</g>
<g>
</g>
<g>
</g>
<g>
</g>
<g>
</g>
<g>
</g>
<g>
</g>
<g>
</g>
<g>
</g>
<g>
</g>
<g>
</g>
<g>
</g>
<g>
</g>
<g>
</g>
<g>
</g>
</svg>
