<?xml version="1.0" encoding="iso-8859-1"?>
<!-- Generator: Adobe Illustrator 19.0.0, SVG Export Plug-In . SVG Version: 6.00 Build 0)  -->
<svg version="1.1" id="Capa_1" xmlns="http://www.w3.org/2000/svg" xmlns:xlink="http://www.w3.org/1999/xlink" x="0px" y="0px"
	 viewBox="0 0 460 460" style="enable-background:new 0 0 460 460;" xml:space="preserve">
<g id="XMLID_882_">
	<rect id="XMLID_883_" x="120" y="170" style="fill:#B39A7C;" width="40" height="60"/>
	<path id="XMLID_884_" style="fill:#B39A7C;" d="M350,270h-30V170h-40v100h-40V170h-40v100h-73.232
		c11.255,23.628,35.365,40,63.232,40h160c16.542,0,30,13.458,30,30v120h40V340C420,301.402,388.598,270,350,270z"/>
	<rect id="XMLID_885_" x="240" y="230" style="fill:#D9CCBC;" width="40" height="40"/>
	<path id="XMLID_886_" style="fill:#D9CCBC;" d="M200,270v-40h-90c-16.542,0-30-13.458-30-30v-30H40v30c0,38.598,31.402,70,70,70
		H200z"/>
	<path id="XMLID_887_" style="fill:#D9CCBC;" d="M350,230h-30v40h30c38.598,0,70,31.402,70,70v120h40V340
		C460,279.346,410.654,230,350,230z"/>
	<path id="XMLID_888_" style="fill:#008877;" d="M360,170c0,0,0-10.25,0-35s-22.5-45-50-45c0-24.75-22.5-45-50-45
		c0-24.75-22.5-45-50-45h-30v170H360z"/>
	<path id="XMLID_889_" style="fill:#00AA95;" d="M180,170V0h-30c-27.5,0-50,20.25-50,45c-27.5,0-50,20.25-50,45
		c-27.5,0-50,20.25-50,45s0,35,0,35H180z"/>
</g>
<g>
</g>
<g>
</g>
<g>
</g>
<g>
</g>
<g>
</g>
<g>
</g>
<g>
</g>
<g>
</g>
<g>
</g>
<g>
</g>
<g>
</g>
<g>
</g>
<g>
</g>
<g>
</g>
<g>
</g>
</svg>
