<?xml version="1.0" encoding="iso-8859-1"?>
<!-- Generator: Adobe Illustrator 19.0.0, SVG Export Plug-In . SVG Version: 6.00 Build 0)  -->
<svg version="1.1" id="Capa_1" xmlns="http://www.w3.org/2000/svg" xmlns:xlink="http://www.w3.org/1999/xlink" x="0px" y="0px"
	 viewBox="0 0 460 460" style="enable-background:new 0 0 460 460;" xml:space="preserve">
<g id="XMLID_866_">
	<polygon id="XMLID_867_" style="fill:#B39A7C;" points="407.97,150 338.285,150 420.12,68.166 391.834,39.88 230,201.715 
		190,161.715 190,52.03 150,52.03 150,121.715 68.166,39.88 39.88,68.166 210,238.285 210,460 250,460 250,238.285 298.285,190 
		407.97,190 	"/>
	<polygon id="XMLID_868_" style="fill:#C0AB91;" points="310,52.03 270,52.03 270,161.715 310,121.715 	"/>
	<polygon id="XMLID_869_" style="fill:#C0AB91;" points="52.03,150 52.03,190 161.715,190 121.715,150 	"/>
	<polygon id="XMLID_870_" style="fill:#008877;" points="170,52.03 224.69,52.03 211.8,38.45 214.25,19.88 195.82,16.48 186.9,0 
		170,8.1 	"/>
	<polygon id="XMLID_871_" style="fill:#00AA95;" points="170,8.1 153.1,0 144.18,16.48 125.75,19.88 128.2,38.45 115.31,52.03 
		170,52.03 	"/>
	<polygon id="XMLID_872_" style="fill:#00AA95;" points="52.03,170 52.03,115.31 38.45,128.2 19.88,125.75 16.48,144.18 0,153.1 
		8.1,170 	"/>
	<polygon id="XMLID_873_" style="fill:#00CCB3;" points="8.1,170 0,186.9 16.48,195.82 19.88,214.25 38.45,211.8 52.03,224.69 
		52.03,170 	"/>
	<polygon id="XMLID_874_" style="fill:#008877;" points="54.023,54.023 92.695,15.351 73.978,14.863 62.579,0 47.143,10.628 
		29.182,5.282 22.96,22.96 	"/>
	<polygon id="XMLID_875_" style="fill:#00AA95;" points="22.96,22.96 5.282,29.182 10.628,47.143 0,62.579 14.863,73.978 
		15.351,92.695 39.88,68.166 54.023,54.023 	"/>
	<polygon id="XMLID_876_" style="fill:#00CCB3;" points="290,8.1 273.1,0 264.18,16.48 245.75,19.88 248.2,38.45 235.31,52.03 
		290,52.03 	"/>
	<polygon id="XMLID_877_" style="fill:#00AA95;" points="290,52.03 344.69,52.03 331.8,38.45 334.25,19.88 315.82,16.48 306.9,0 
		290,8.1 	"/>
	<polygon id="XMLID_878_" style="fill:#008877;" points="443.52,144.18 440.12,125.75 421.55,128.2 407.97,115.31 407.97,170 
		451.9,170 460,153.1 	"/>
	<polygon id="XMLID_879_" style="fill:#00AA95;" points="407.97,170 407.97,224.69 421.55,211.8 440.12,214.25 443.52,195.82 
		460,186.9 451.9,170 	"/>
	<polygon id="XMLID_880_" style="fill:#008877;" points="437.04,22.96 430.818,5.282 412.857,10.628 397.421,0 386.022,14.863 
		367.305,15.351 405.977,54.023 	"/>
	<polygon id="XMLID_881_" style="fill:#00AA95;" points="405.977,54.023 420.12,68.166 444.649,92.695 445.137,73.978 460,62.579 
		449.372,47.143 454.718,29.182 437.04,22.96 	"/>
</g>
<g>
</g>
<g>
</g>
<g>
</g>
<g>
</g>
<g>
</g>
<g>
</g>
<g>
</g>
<g>
</g>
<g>
</g>
<g>
</g>
<g>
</g>
<g>
</g>
<g>
</g>
<g>
</g>
<g>
</g>
</svg>
