<?xml version="1.0" encoding="iso-8859-1"?>
<!-- Generator: Adobe Illustrator 19.0.0, SVG Export Plug-In . SVG Version: 6.00 Build 0)  -->
<svg version="1.1" id="Capa_1" xmlns="http://www.w3.org/2000/svg" xmlns:xlink="http://www.w3.org/1999/xlink" x="0px" y="0px"
	 viewBox="0 0 460 460" style="enable-background:new 0 0 460 460;" xml:space="preserve">
<g id="XMLID_851_">
	<path id="XMLID_852_" style="fill:#D9CCBC;" d="M370,150h-20c-16.542,0-30-13.458-30-30V60h-40v60
		c0,25.032,13.217,47.026,33.03,59.402C325.736,161.623,346.53,150,370,150z"/>
	<path id="XMLID_853_" style="fill:#D9CCBC;" d="M110,50V0H70v50c0,38.598,31.402,70,70,70V80C123.458,80,110,66.542,110,50z"/>
	<path id="XMLID_854_" style="fill:#B39A7C;" d="M390,50V0h-40v50c0,16.542-13.458,30-30,30v40C358.598,120,390,88.598,390,50z"/>
	<path id="XMLID_855_" style="fill:#B39A7C;" d="M146.97,179.402C166.783,167.026,180,145.032,180,120V60h-40v60
		c0,16.542-13.458,30-30,30H90C113.47,150,134.264,161.623,146.97,179.402z"/>
	<path id="XMLID_856_" style="fill:#C0AB91;" d="M120,280H70c-16.542,0-30-13.458-30-30v-40H0v40c0,38.599,31.402,70,70,70h56.768
		c-4.334-9.098-6.768-19.269-6.768-30V280z"/>
	<path id="XMLID_857_" style="fill:#C0AB91;" d="M263.232,360c4.334,9.098,6.768,19.269,6.768,30v70h40v-70
		c0-13.478-2.442-26.396-6.898-38.34C293.24,356.976,281.967,360,270,360H263.232z"/>
	<path id="XMLID_858_" style="fill:#C0AB91;" d="M177.542,317.28c9.106-10.313,20.106-18.916,32.458-25.246v-11.575
		c-3.295-0.298-6.629-0.459-10-0.459h-40v10C160,302.098,167.203,312.54,177.542,317.28z"/>
	<path id="XMLID_859_" style="fill:#B39A7C;" d="M250,280.459V180h-40v112.035C222.197,285.784,235.71,281.753,250,280.459z"/>
	<path id="XMLID_860_" style="fill:#A78966;" d="M196.768,360H190c-11.967,0-23.24-3.024-33.102-8.34
		C152.442,363.604,150,376.522,150,390v70h40v-70C190,379.269,192.434,369.098,196.768,360z"/>
	<path id="XMLID_861_" style="fill:#A78966;" d="M333.232,320H390c38.598,0,70-31.401,70-70v-40h-40v40c0,16.542-13.458,30-30,30
		h-50v10C340,300.731,337.566,310.902,333.232,320z"/>
	<path id="XMLID_862_" style="fill:#A78966;" d="M210,292.035c-12.352,6.33-23.352,14.933-32.458,25.246
		c3.797,1.741,8.014,2.72,12.458,2.72h10c4.825,0,9.537,0.491,14.09,1.425c5.573,1.143,10.903,2.958,15.91,5.343
		c5.008-2.385,10.337-4.2,15.91-5.343c4.553-0.934,9.265-1.425,14.09-1.425h10c16.542,0,30-13.458,30-30v-10h-40
		c-3.371,0-6.705,0.161-10,0.459C235.71,281.753,222.197,285.784,210,292.035z"/>
	<path id="XMLID_863_" style="fill:#D9CCBC;" d="M263.232,360H260c-16.542,0-30,13.458-30,30v70h40v-70
		C270,379.269,267.566,369.098,263.232,360z"/>
	<path id="XMLID_864_" style="fill:#D9CCBC;" d="M196.768,360c6.921-14.529,18.703-26.311,33.232-33.232
		c-5.008-2.385-10.337-4.2-15.91-5.343C209.537,320.491,204.825,320,200,320h-10c-4.444,0-8.661-0.979-12.458-2.72
		C167.203,312.54,160,302.098,160,290v-70c0-15.128-4.84-29.138-13.03-40.598C134.264,161.623,113.47,150,90,150H70
		c-16.542,0-30-13.458-30-30V60H0v60c0,38.598,31.402,70,70,70h20c16.542,0,30,13.458,30,30v70c0,10.731,2.434,20.902,6.768,30
		c6.422,13.481,17.027,24.597,30.13,31.66C166.76,356.976,178.033,360,190,360H196.768z"/>
	<path id="XMLID_865_" style="fill:#B39A7C;" d="M370,190h20c38.598,0,70-31.402,70-70V60h-40v60c0,16.542-13.458,30-30,30h-20
		c-23.47,0-44.264,11.623-56.97,29.402C304.84,190.862,300,204.872,300,220v70c0,16.542-13.458,30-30,30h-10
		c-4.825,0-9.537,0.491-14.09,1.425c-5.573,1.143-10.903,2.958-15.91,5.343c-14.529,6.921-26.31,18.703-33.232,33.232
		c-4.334,9.098-6.768,19.269-6.768,30v70h40v-70c0-16.542,13.458-30,30-30h10c11.967,0,23.24-3.024,33.102-8.34
		c13.103-7.063,23.708-18.179,30.13-31.66c4.334-9.098,6.768-19.269,6.768-30v-70C340,203.458,353.458,190,370,190z"/>
</g>
<g>
</g>
<g>
</g>
<g>
</g>
<g>
</g>
<g>
</g>
<g>
</g>
<g>
</g>
<g>
</g>
<g>
</g>
<g>
</g>
<g>
</g>
<g>
</g>
<g>
</g>
<g>
</g>
<g>
</g>
</svg>
