<?xml version="1.0" encoding="iso-8859-1"?>
<!-- Generator: Adobe Illustrator 19.0.0, SVG Export Plug-In . SVG Version: 6.00 Build 0)  -->
<svg version="1.1" id="Capa_1" xmlns="http://www.w3.org/2000/svg" xmlns:xlink="http://www.w3.org/1999/xlink" x="0px" y="0px"
	 viewBox="0 0 459.33 459.33" style="enable-background:new 0 0 459.33 459.33;" xml:space="preserve">
<g id="XMLID_815_">
	<rect id="XMLID_816_" x="209.665" y="415.33" style="fill:#A78966;" width="40" height="44"/>
	<path id="XMLID_817_" style="fill:#008877;" d="M369.134,333.146c1.675-1.401,3.285-2.869,4.818-4.401
		c7.106-7.106,12.865-15.559,16.84-24.931c3.985-9.372,6.186-19.653,6.186-30.438h-51.493c1.226-1.051,2.42-2.146,3.558-3.285
		c6.766-6.767,12.241-14.803,16.029-23.727c3.788-8.913,5.891-18.701,5.891-28.96h-49.139c0.788-0.712,1.566-1.434,2.31-2.179
		c6.416-6.416,11.617-14.048,15.208-22.511c3.602-8.464,5.595-17.759,5.595-27.493h-46.818c0.372-0.351,0.745-0.701,1.106-1.062
		c6.077-6.077,10.993-13.303,14.398-21.307c3.405-8.015,5.288-16.807,5.288-26.026H274.37c5.704-5.716,10.325-12.515,13.522-20.048
		c3.219-7.555,4.993-15.854,4.993-24.548h-33.833V29.376C259.052,13.216,245.826,0,229.665,0v129.33c11.05,0,20,8.95,20,20v30
		c0,11.05-8.95,20-20,20v216H340.82c22.599,0,43.15-9.241,58.041-24.143c7.456-7.445,13.489-16.303,17.661-26.135
		c4.172-9.821,6.482-20.606,6.482-31.906H369.134z M315.484,323.376c0,11.05-8.95,20-20,20s-20-8.95-20-20v-30
		c0-11.05,8.95-20,20-20s20,8.95,20,20V323.376z"/>
	<path id="XMLID_820_" style="fill:#00AA95;" d="M229.665,199.33c-11.05,0-20-8.95-20-20v-30c0-11.05,8.95-20,20-20V0
		c-16.161,0-29.387,13.216-29.387,29.376v42.854h-33.833c0,8.693,1.774,16.993,4.993,24.548c3.197,7.533,7.818,14.332,13.522,20.048
		h-44.541c0,9.219,1.883,18.011,5.288,26.026c3.405,8.004,8.321,15.23,14.398,21.307c0.361,0.361,0.734,0.711,1.106,1.062h-46.818
		c0,9.734,1.993,19.029,5.595,27.493c3.591,8.464,8.792,16.095,15.208,22.511c0.744,0.745,1.522,1.467,2.31,2.179H88.368
		c0,10.259,2.102,20.048,5.891,28.96c3.788,8.923,9.263,16.96,16.029,23.727c1.139,1.139,2.332,2.234,3.558,3.285H62.353
		c0,10.785,2.201,21.066,6.186,30.438c3.974,9.373,9.734,17.825,16.84,24.931c1.533,1.533,3.142,3,4.818,4.401H36.327
		c0,11.3,2.31,22.084,6.482,31.906c4.172,9.832,10.204,18.69,17.661,26.135c14.891,14.902,35.442,24.143,58.041,24.143h111.155
		V199.33z M160.196,348.146c0,11.05-8.95,20-20,20c-11.05,0-20-8.95-20-20v-30c0-11.05,8.95-20,20-20c11.05,0,20,8.95,20,20V348.146
		z M209.665,267.404c0,11.05-8.95,20-20,20s-20-8.95-20-20v-30c0-11.05,8.95-20,20-20s20,8.95,20,20V267.404z"/>
	<path id="XMLID_824_" style="fill:#C0AB91;" d="M140.196,298.146v70c11.05,0,20-8.95,20-20v-30
		C160.196,307.097,151.246,298.146,140.196,298.146z"/>
	<path id="XMLID_825_" style="fill:#D9CCBC;" d="M120.196,318.146v30c0,11.05,8.95,20,20,20v-70
		C129.146,298.146,120.196,307.097,120.196,318.146z"/>
	<path id="XMLID_826_" style="fill:#A78966;" d="M249.665,179.33v-30c0-11.05-8.95-20-20-20v70
		C240.715,199.33,249.665,190.38,249.665,179.33z"/>
	<path id="XMLID_827_" style="fill:#C0AB91;" d="M209.665,149.33v30c0,11.05,8.95,20,20,20v-70
		C218.615,129.33,209.665,138.28,209.665,149.33z"/>
	<path id="XMLID_828_" style="fill:#A78966;" d="M295.484,273.376v70c11.05,0,20-8.95,20-20v-30
		C315.484,282.326,306.534,273.376,295.484,273.376z"/>
	<path id="XMLID_829_" style="fill:#C0AB91;" d="M275.484,293.376v30c0,11.05,8.95,20,20,20v-70
		C284.434,273.376,275.484,282.326,275.484,293.376z"/>
	<path id="XMLID_830_" style="fill:#C0AB91;" d="M189.665,217.404v70c11.05,0,20-8.95,20-20v-30
		C209.665,226.354,200.715,217.404,189.665,217.404z"/>
	<path id="XMLID_831_" style="fill:#D9CCBC;" d="M169.665,237.404v30c0,11.05,8.95,20,20,20v-70
		C178.615,217.404,169.665,226.354,169.665,237.404z"/>
</g>
<g>
</g>
<g>
</g>
<g>
</g>
<g>
</g>
<g>
</g>
<g>
</g>
<g>
</g>
<g>
</g>
<g>
</g>
<g>
</g>
<g>
</g>
<g>
</g>
<g>
</g>
<g>
</g>
<g>
</g>
</svg>
