<?xml version="1.0" encoding="iso-8859-1"?>
<!-- Generator: Adobe Illustrator 19.0.0, SVG Export Plug-In . SVG Version: 6.00 Build 0)  -->
<svg version="1.1" id="Capa_1" xmlns="http://www.w3.org/2000/svg" xmlns:xlink="http://www.w3.org/1999/xlink" x="0px" y="0px"
	 viewBox="0 0 460 460" style="enable-background:new 0 0 460 460;" xml:space="preserve">
<g id="XMLID_810_">
	<path id="XMLID_811_" style="fill:#00AA95;" d="M430,320v-30c0-27.5-22.5-50-50-50v-30c0-27.5-22.5-50-50-50v-30
		c0-27.5-22.5-50-50-50V50c0-27.5-22.5-50-50-50v320H430z"/>
	<polygon id="XMLID_812_" style="fill:#B39A7C;" points="230,320 230,460 270,460 270,400 350,400 350,360 270,360 270,320 	"/>
	<rect id="XMLID_813_" x="190" y="320" style="fill:#D9CCBC;" width="40" height="140"/>
	<path id="XMLID_814_" style="fill:#00CCB3;" d="M230,320V0c-27.5,0-50,22.5-50,50v30c-27.5,0-50,22.5-50,50v30
		c-27.5,0-50,22.5-50,50v30c-27.5,0-50,22.5-50,50v30H230z"/>
</g>
<g>
</g>
<g>
</g>
<g>
</g>
<g>
</g>
<g>
</g>
<g>
</g>
<g>
</g>
<g>
</g>
<g>
</g>
<g>
</g>
<g>
</g>
<g>
</g>
<g>
</g>
<g>
</g>
<g>
</g>
</svg>
