<?xml version="1.0" encoding="iso-8859-1"?>
<!-- Generator: Adobe Illustrator 19.0.0, SVG Export Plug-In . SVG Version: 6.00 Build 0)  -->
<svg version="1.1" id="Capa_1" xmlns="http://www.w3.org/2000/svg" xmlns:xlink="http://www.w3.org/1999/xlink" x="0px" y="0px"
	 viewBox="0 0 460 460" style="enable-background:new 0 0 460 460;" xml:space="preserve">
<g id="XMLID_800_">
	<rect id="XMLID_801_" x="210" y="390" style="fill:#B39A7C;" width="40" height="70"/>
	<path id="XMLID_802_" style="fill:#B39A7C;" d="M250,121.819V90h-40v31.819c6.486-1.191,13.169-1.819,20-1.819
		S243.514,120.628,250,121.819z"/>
	<path id="XMLID_803_" style="fill:#B39A7C;" d="M250,261.531V230h-40v31.531c6.52-1.007,13.198-1.531,20-1.531
		S243.48,260.525,250,261.531z"/>
	<path id="XMLID_804_" style="fill:#008877;" d="M320,90c0-49.704-40.296-90-90-90v90H320z"/>
	<path id="XMLID_805_" style="fill:#00AA95;" d="M230,0c-49.704,0-90,40.296-90,90h90V0z"/>
	<path id="XMLID_806_" style="fill:#008877;" d="M230,230h110c0-53.919-38.8-98.774-90-108.181c-6.486-1.191-13.169-1.819-20-1.819
		V230z"/>
	<path id="XMLID_807_" style="fill:#00AA95;" d="M230,120c-6.831,0-13.514,0.628-20,1.819c-51.2,9.406-90,54.262-90,108.181h110V120
		z"/>
	<path id="XMLID_808_" style="fill:#008877;" d="M250,261.531c-6.52-1.007-13.198-1.531-20-1.531v130h130
		C360,325.007,312.3,271.153,250,261.531z"/>
	<path id="XMLID_809_" style="fill:#00AA95;" d="M230,260c-6.802,0-13.48,0.525-20,1.531C147.7,271.153,100,325.007,100,390h130V260
		z"/>
</g>
<g>
</g>
<g>
</g>
<g>
</g>
<g>
</g>
<g>
</g>
<g>
</g>
<g>
</g>
<g>
</g>
<g>
</g>
<g>
</g>
<g>
</g>
<g>
</g>
<g>
</g>
<g>
</g>
<g>
</g>
</svg>
