<?xml version="1.0" encoding="iso-8859-1"?>
<!-- Generator: Adobe Illustrator 19.0.0, SVG Export Plug-In . SVG Version: 6.00 Build 0)  -->
<svg version="1.1" id="Capa_1" xmlns="http://www.w3.org/2000/svg" xmlns:xlink="http://www.w3.org/1999/xlink" x="0px" y="0px"
	 viewBox="0 0 460 460" style="enable-background:new 0 0 460 460;" xml:space="preserve">
<g id="XMLID_523_">
	<path id="XMLID_524_" style="fill:#A78966;" d="M260,349.03c-2.944,1.706-6.353,2.697-10,2.697c-11.046,0-20-8.954-20-20V440h40
		v-41.829c-6.219-7.05-10-16.303-10-26.443V349.03z"/>
	<path id="XMLID_525_" style="fill:#B39A7C;" d="M200,331.728v40c0,10.141-3.781,19.394-10,26.444V440h40V331.728H200z"/>
	<path id="XMLID_526_" style="fill:#D5B4E8;" d="M200,331.728h30V20c-56.72,0-106.1,31.45-131.65,77.86
		C40.99,118.59,0,173.51,0,238.02v93.708c0,11.046,8.954,20,20,20c3.647,0,7.056-0.992,10-2.697v9.789c0,16.568,13.431,30,30,30
		c16.569,0,30-13.432,30-30v-27.092h30v40c0,22.092,17.909,40,40,40c11.951,0,22.67-5.248,30-13.556c6.219-7.05,10-16.303,10-26.444
		V331.728z M180,87c11.046,0,20,8.954,20,20v44.728c0,11.046-8.954,20-20,20s-20-8.954-20-20V107C160,95.954,168.954,87,180,87z
		 M140,247c0-11.046,8.954-20,20-20s20,8.954,20,20v44.728c0,11.046-8.954,20-20,20s-20-8.954-20-20V247z M110,241.728
		c0,11.046-8.954,20-20,20s-20-8.954-20-20V197c0-11.046,8.954-20,20-20s20,8.954,20,20V241.728z"/>
	<path id="XMLID_533_" style="fill:#B87FD9;" d="M361.65,97.86C336.1,51.45,286.72,20,230,20v311.728c0,11.046,8.954,20,20,20
		c3.647,0,7.056-0.992,10-2.697v22.697c0,10.141,3.781,19.394,10,26.443c7.33,8.309,18.049,13.557,30,13.557
		c22.091,0,40-17.908,40-40v-40h30v27.092c0,16.568,13.431,30,30,30c16.569,0,30-13.432,30-30v-9.789
		c2.944,1.706,6.353,2.697,10,2.697c11.046,0,20-8.954,20-20V238.02C460,173.51,419.01,118.59,361.65,97.86z M320,247v44.728
		c0,11.046-8.954,20-20,20s-20-8.954-20-20V247c0-11.046,8.954-20,20-20S320,235.954,320,247z M260,107c0-11.046,8.954-20,20-20
		s20,8.954,20,20v44.728c0,11.046-8.954,20-20,20s-20-8.954-20-20V107z M350,241.728V197c0-11.046,8.954-20,20-20s20,8.954,20,20
		v44.728c0,11.046-8.954,20-20,20S350,252.773,350,241.728z"/>
	<path id="XMLID_783_" style="fill:#B87FD9;" d="M90,177c-11.046,0-20,8.954-20,20v44.728c0,11.046,8.954,20,20,20s20-8.954,20-20
		V197C110,185.954,101.046,177,90,177z"/>
	<path id="XMLID_784_" style="fill:#B87FD9;" d="M160,311.728c11.046,0,20-8.954,20-20V247c0-11.046-8.954-20-20-20s-20,8.954-20,20
		v44.728C140,302.773,148.954,311.728,160,311.728z"/>
	<path id="XMLID_785_" style="fill:#B87FD9;" d="M160,151.728c0,11.046,8.954,20,20,20s20-8.954,20-20V107c0-11.046-8.954-20-20-20
		s-20,8.954-20,20V151.728z"/>
	<path id="XMLID_786_" style="fill:#D5B4E8;" d="M390,241.728V197c0-11.046-8.954-20-20-20s-20,8.954-20,20v44.728
		c0,11.046,8.954,20,20,20S390,252.773,390,241.728z"/>
	<path id="XMLID_787_" style="fill:#D5B4E8;" d="M280,247v44.728c0,11.046,8.954,20,20,20s20-8.954,20-20V247
		c0-11.046-8.954-20-20-20S280,235.954,280,247z"/>
	<path id="XMLID_788_" style="fill:#D5B4E8;" d="M280,171.728c11.046,0,20-8.954,20-20V107c0-11.046-8.954-20-20-20s-20,8.954-20,20
		v44.728C260,162.773,268.954,171.728,280,171.728z"/>
</g>
<g>
</g>
<g>
</g>
<g>
</g>
<g>
</g>
<g>
</g>
<g>
</g>
<g>
</g>
<g>
</g>
<g>
</g>
<g>
</g>
<g>
</g>
<g>
</g>
<g>
</g>
<g>
</g>
<g>
</g>
</svg>
