<?xml version="1.0" encoding="iso-8859-1"?>
<!-- Generator: Adobe Illustrator 19.0.0, SVG Export Plug-In . SVG Version: 6.00 Build 0)  -->
<svg version="1.1" id="Capa_1" xmlns="http://www.w3.org/2000/svg" xmlns:xlink="http://www.w3.org/1999/xlink" x="0px" y="0px"
	 viewBox="0 0 460 460" style="enable-background:new 0 0 460 460;" xml:space="preserve">
<g id="XMLID_507_">
	<path id="XMLID_508_" style="fill:#B39A7C;" d="M189.663,360c-16.542,0-30-13.458-30-30h-40c0,38.599,31.402,70,70,70H210v-40
		H189.663z"/>
	<path id="XMLID_509_" style="fill:#A78966;" d="M269.72,360H250v-30h-40v110h40v-40h19.72c38.598,0,70-31.401,70-70h-40
		C299.72,346.542,286.262,360,269.72,360z"/>
	<path id="XMLID_510_" style="fill:#FF7956;" d="M230,20v310h169.691v-40H460v-40C460,122.97,357.03,20,230,20z M329.667,209
		c-11.046,0-20-8.954-20-20s8.954-20,20-20c11.046,0,20,8.954,20,20S340.712,209,329.667,209z M399.479,290h0.061
		C399.521,290.405,399.501,290.464,399.479,290z"/>
	<path id="XMLID_516_" style="fill:#FF9478;" d="M230,330V20C102.97,20,0,122.97,0,250v40h59.691v40H230z M169.667,209
		c11.046,0,20,8.954,20,20s-8.954,20-20,20c-11.046,0-20-8.954-20-20S158.621,209,169.667,209z M109.667,139
		c0-11.046,8.954-20,20-20c11.046,0,20,8.954,20,20s-8.954,20-20,20C118.621,159,109.667,150.046,109.667,139z"/>
	<circle id="XMLID_520_" style="fill:#FF7956;" cx="129.667" cy="139" r="20"/>
	<circle id="XMLID_521_" style="fill:#FF7956;" cx="169.667" cy="229" r="20"/>
	<circle id="XMLID_522_" style="fill:#FF9478;" cx="329.667" cy="189" r="20"/>
</g>
<g>
</g>
<g>
</g>
<g>
</g>
<g>
</g>
<g>
</g>
<g>
</g>
<g>
</g>
<g>
</g>
<g>
</g>
<g>
</g>
<g>
</g>
<g>
</g>
<g>
</g>
<g>
</g>
<g>
</g>
</svg>
