<?xml version="1.0" encoding="iso-8859-1"?>
<!-- Generator: Adobe Illustrator 19.0.0, SVG Export Plug-In . SVG Version: 6.00 Build 0)  -->
<svg version="1.1" id="Capa_1" xmlns="http://www.w3.org/2000/svg" xmlns:xlink="http://www.w3.org/1999/xlink" x="0px" y="0px"
	 viewBox="0 0 460 460" style="enable-background:new 0 0 460 460;" xml:space="preserve">
<g id="XMLID_472_">
	<path id="XMLID_473_" style="fill:#C0AB91;" d="M332,222v38c0,16.542-13.458,30-30,30h-52v-68h-40v238h40V330h52
		c38.598,0,70-31.401,70-70v-38H332z"/>
	<path id="XMLID_474_" style="fill:#D9CCBC;" d="M158,290c-16.542,0-30-13.458-30-30v-38H88v38c0,38.599,31.402,70,70,70h52v-40H158
		z"/>
	<path id="XMLID_475_" style="fill:#008877;" d="M230,122c18.411,0,33.333,14.922,33.333,33.333c11.524,0,21.68,5.847,27.667,14.735
		c5.987-8.889,16.143-14.735,27.667-14.735C318.667,136.922,333.589,122,352,122c0-33.692-27.308-61-61-61c0-33.692-27.308-61-61-61
		V122z"/>
	<path id="XMLID_476_" style="fill:#00AA95;" d="M141.333,155.333c11.524,0,21.68,5.847,27.667,14.735
		c5.987-8.889,16.143-14.735,27.667-14.735C196.667,136.922,211.589,122,230,122V0c-33.692,0-61,27.308-61,61
		c-33.692,0-61,27.308-61,61C126.411,122,141.333,136.922,141.333,155.333z"/>
	<path id="XMLID_477_" style="fill:#00AA95;" d="M291,207.264c-3.578-5.312-5.667-11.71-5.667-18.598s2.089-13.285,5.667-18.598
		c-5.987-8.889-16.143-14.735-27.667-14.735C263.333,136.922,248.411,122,230,122v100h33.333
		C274.857,222,285.013,216.153,291,207.264z"/>
	<path id="XMLID_478_" style="fill:#00CCB3;" d="M230,122c-18.411,0-33.333,14.922-33.333,33.333
		c-11.524,0-21.68,5.847-27.667,14.735c3.578,5.313,5.667,11.71,5.667,18.598s-2.089,13.286-5.667,18.598
		c5.987,8.889,16.143,14.736,27.667,14.736H230V122z"/>
	<path id="XMLID_479_" style="fill:#008877;" d="M108,222h33.333c11.524,0,21.68-5.847,27.667-14.736
		c3.578-5.312,5.667-11.71,5.667-18.598s-2.089-13.285-5.667-18.598c-5.987-8.889-16.143-14.735-27.667-14.735
		C141.333,136.922,126.411,122,108,122V222z"/>
	<path id="XMLID_481_" style="fill:#00AA95;" d="M108,122c-18.411,0-33.333,14.922-33.333,33.333
		c-18.411,0-33.333,14.922-33.333,33.333S56.256,222,74.667,222H108V122z"/>
	<path id="XMLID_482_" style="fill:#00AA95;" d="M385.333,155.333C385.333,136.922,370.411,122,352,122v100h33.333
		c18.411,0,33.333-14.922,33.333-33.333S403.744,155.333,385.333,155.333z"/>
	<path id="XMLID_483_" style="fill:#00CCB3;" d="M318.667,155.333c-11.524,0-21.68,5.847-27.667,14.735
		c-3.578,5.313-5.667,11.71-5.667,18.598s2.089,13.286,5.667,18.598c5.987,8.889,16.143,14.736,27.667,14.736H352V122
		C333.589,122,318.667,136.922,318.667,155.333z"/>
</g>
<g>
</g>
<g>
</g>
<g>
</g>
<g>
</g>
<g>
</g>
<g>
</g>
<g>
</g>
<g>
</g>
<g>
</g>
<g>
</g>
<g>
</g>
<g>
</g>
<g>
</g>
<g>
</g>
<g>
</g>
</svg>
