<?xml version="1.0" encoding="iso-8859-1"?>
<!-- Generator: Adobe Illustrator 19.0.0, SVG Export Plug-In . SVG Version: 6.00 Build 0)  -->
<svg version="1.1" id="Capa_1" xmlns="http://www.w3.org/2000/svg" xmlns:xlink="http://www.w3.org/1999/xlink" x="0px" y="0px"
	 viewBox="0 0 460 460" style="enable-background:new 0 0 460 460;" xml:space="preserve">
<g id="XMLID_333_">
	<rect id="XMLID_334_" x="210" y="381.62" style="fill:#C0AB91;" width="40" height="78.38"/>
	<path id="XMLID_350_" style="fill:#FFDE55;" d="M460,230c0-14.06-7.26-26.41-18.22-33.54c8.22-10.18,11.31-24.17,6.96-37.53
		c-4.34-13.37-15.06-22.88-27.69-26.27c4.68-12.22,3.29-26.48-4.98-37.85c-8.26-11.37-21.39-17.1-34.45-16.43
		c0.67-13.06-5.06-26.19-16.43-34.45c-11.37-8.27-25.63-9.66-37.85-4.98c-3.39-12.63-12.9-23.35-26.27-27.69
		c-13.36-4.35-27.35-1.26-37.53,6.96C256.41,7.26,244.06,0,230,0v381.62h151.62c13.06,0.67,26.19-5.06,34.45-16.43
		c8.27-11.37,9.66-25.63,4.98-37.85c12.63-3.39,23.35-12.9,27.69-26.27c4.35-13.36,1.26-27.35-6.96-37.53
		C452.74,256.41,460,244.06,460,230z M350,330c-22.091,0-40-17.909-40-40s17.909-40,40-40s40,17.909,40,40S372.091,330,350,330z"/>
	<path id="XMLID_446_" style="fill:#FFEB99;" d="M230,0c-14.06,0-26.41,7.26-33.54,18.22c-10.18-8.22-24.17-11.31-37.53-6.96
		c-13.37,4.34-22.88,15.06-26.27,27.69c-12.22-4.68-26.48-3.29-37.85,4.98c-11.37,8.26-17.1,21.39-16.43,34.45
		c-13.06-0.67-26.19,5.06-34.45,16.43c-8.27,11.37-9.66,25.63-4.98,37.85c-12.63,3.39-23.35,12.9-27.69,26.27
		c-4.35,13.36-1.26,27.35,6.96,37.53C7.26,203.59,0,215.94,0,230s7.26,26.41,18.22,33.54c-8.22,10.18-11.31,24.17-6.96,37.53
		c4.34,13.37,15.06,22.88,27.69,26.27c-4.68,12.22-3.29,26.48,4.98,37.85c8.26,11.37,21.39,17.1,34.45,16.43H230V0z M110,270
		c-22.091,0-40-17.909-40-40s17.909-40,40-40s40,17.909,40,40S132.091,270,110,270z M170,170c-22.091,0-40-17.909-40-40
		s17.909-40,40-40s40,17.909,40,40S192.091,170,170,170z"/>
	<path id="XMLID_452_" style="fill:#FFDE55;" d="M110,190v80c22.091,0,40-17.909,40-40S132.091,190,110,190z"/>
	<path id="XMLID_453_" style="fill:#FFFFFF;" d="M70,230c0,22.091,17.909,40,40,40v-80C87.909,190,70,207.909,70,230z"/>
	<path id="XMLID_458_" style="fill:#FFEB99;" d="M350,250v80c22.091,0,40-17.909,40-40S372.091,250,350,250z"/>
	<path id="XMLID_459_" style="fill:#FFFFFF;" d="M310,290c0,22.091,17.909,40,40,40v-80C327.909,250,310,267.909,310,290z"/>
	<path id="XMLID_462_" style="fill:#FFDE55;" d="M170,90v80c22.091,0,40-17.909,40-40S192.091,90,170,90z"/>
	<path id="XMLID_463_" style="fill:#FFFFFF;" d="M130,130c0,22.091,17.909,40,40,40V90C147.909,90,130,107.909,130,130z"/>
</g>
<g>
</g>
<g>
</g>
<g>
</g>
<g>
</g>
<g>
</g>
<g>
</g>
<g>
</g>
<g>
</g>
<g>
</g>
<g>
</g>
<g>
</g>
<g>
</g>
<g>
</g>
<g>
</g>
<g>
</g>
</svg>
