<?xml version="1.0" encoding="iso-8859-1"?>
<!-- Generator: Adobe Illustrator 19.0.0, SVG Export Plug-In . SVG Version: 6.00 Build 0)  -->
<svg version="1.1" id="Capa_1" xmlns="http://www.w3.org/2000/svg" xmlns:xlink="http://www.w3.org/1999/xlink" x="0px" y="0px"
	 viewBox="0 0 460 460" style="enable-background:new 0 0 460 460;" xml:space="preserve">
<g id="XMLID_138_">
	<rect id="XMLID_169_" x="140" y="260" style="fill:#D9CCBC;" width="70" height="40"/>
	<polygon id="XMLID_197_" style="fill:#C0AB91;" points="250,200 250,150 210,150 210,460 250,460 250,240 320,240 320,200 	"/>
	<path id="XMLID_221_" style="fill:#008877;" d="M320,180v80c22.091,0,40-17.909,40-40S342.091,180,320,180z"/>
	<path id="XMLID_222_" style="fill:#00AA95;" d="M140,240c-22.091,0-40,17.909-40,40s17.909,40,40,40V240z"/>
	<path id="XMLID_223_" style="fill:#008877;" d="M380,150C380,67.16,312.84,0,230,0v150H380z"/>
	<path id="XMLID_224_" style="fill:#00AA95;" d="M230,0C147.16,0,80,67.16,80,150h150V0z"/>
</g>
<g>
</g>
<g>
</g>
<g>
</g>
<g>
</g>
<g>
</g>
<g>
</g>
<g>
</g>
<g>
</g>
<g>
</g>
<g>
</g>
<g>
</g>
<g>
</g>
<g>
</g>
<g>
</g>
<g>
</g>
</svg>
