<?xml version="1.0" encoding="iso-8859-1"?>
<!-- Generator: Adobe Illustrator 19.0.0, SVG Export Plug-In . SVG Version: 6.00 Build 0)  -->
<svg version="1.1" id="Capa_1" xmlns="http://www.w3.org/2000/svg" xmlns:xlink="http://www.w3.org/1999/xlink" x="0px" y="0px"
	 viewBox="0 0 460 460" style="enable-background:new 0 0 460 460;" xml:space="preserve">
<g id="XMLID_92_">
	<polygon id="XMLID_93_" style="fill:#D9CCBC;" points="300.411,196.304 250,246.715 250,196.304 210,196.304 210,246.715 
		159.589,196.304 103.02,196.304 200,293.285 200,340 260,340 260,293.285 356.98,196.304 	"/>
	<polygon id="XMLID_104_" style="fill:#317F46;" points="230,196.304 433.928,196.304 460,158.12 419.681,135.383 426.971,89.728 
		380.878,84.849 371.263,39.566 326.103,50.067 303.242,9.758 262.914,32.647 230,0 	"/>
	<polygon id="XMLID_107_" style="fill:#3FA45A;" points="230,196.304 230,0 197.086,32.647 156.758,9.758 133.897,50.067 
		88.737,39.566 79.122,84.849 33.029,89.728 40.319,135.383 0,158.12 26.072,196.304 	"/>
	<rect id="XMLID_108_" x="200" y="380" style="fill:#D9CCBC;" width="60" height="40"/>
	<rect id="XMLID_109_" x="200" y="420" style="fill:#B39A7C;" width="60" height="40"/>
	<rect id="XMLID_110_" x="200" y="340" style="fill:#B39A7C;" width="60" height="40"/>
</g>
<g>
</g>
<g>
</g>
<g>
</g>
<g>
</g>
<g>
</g>
<g>
</g>
<g>
</g>
<g>
</g>
<g>
</g>
<g>
</g>
<g>
</g>
<g>
</g>
<g>
</g>
<g>
</g>
<g>
</g>
</svg>
