<?xml version="1.0" encoding="iso-8859-1"?>
<!-- Generator: Adobe Illustrator 19.0.0, SVG Export Plug-In . SVG Version: 6.00 Build 0)  -->
<svg version="1.1" id="Capa_1" xmlns="http://www.w3.org/2000/svg" xmlns:xlink="http://www.w3.org/1999/xlink" x="0px" y="0px"
	 viewBox="0 0 460 460" style="enable-background:new 0 0 460 460;" xml:space="preserve">
<g id="XMLID_23_">
	<path id="XMLID_24_" style="fill:#FFA733;" d="M400,105c0,14.019-10.762,25-24.5,25H345V70h-40v60h-75v330h130V170h15.5
		c17.39,0,33.663-6.8,45.82-19.148C433.366,138.619,440,122.335,440,105V70h-40V105z M300,410c-11.046,0-20-8.954-20-20
		s8.954-20,20-20s20,8.954,20,20S311.046,410,300,410z M300,330c-11.046,0-20-8.954-20-20s8.954-20,20-20s20,8.954,20,20
		S311.046,330,300,330z"/>
	<path id="XMLID_28_" style="fill:#00AA95;" d="M140,70V50c0-16.268,7.876-30.782,20-39.928C151.628,3.757,141.232,0,130,0H90v70
		H140z"/>
	<path id="XMLID_29_" style="fill:#00CCB3;" d="M90,70V0H50C22.5,0,0,22.5,0,50v20H90z"/>
	<path id="XMLID_30_" style="fill:#00AA95;" d="M410,0h-40v70h90V50C460,22.5,437.5,0,410,0z"/>
	<path id="XMLID_31_" style="fill:#00CCB3;" d="M320,50v20h50V0h-40c-11.232,0-21.628,3.757-30,10.072
		C312.124,19.218,320,33.732,320,50z"/>
	<path id="XMLID_71_" style="fill:#00AA95;" d="M320,70V50c0-16.268-7.876-30.782-20-39.928C291.628,3.757,281.232,0,270,0h-40v70
		H320z"/>
	<path id="XMLID_85_" style="fill:#00CCB3;" d="M140,50v20h90V0h-40c-11.232,0-21.628,3.757-30,10.072
		C147.876,19.218,140,33.732,140,50z"/>
	<path id="XMLID_86_" style="fill:#FFC477;" d="M230,130h20V70h-40v60h-55V70h-40v60H85.5C71.439,130,60,118.785,60,105V70H20v35
		c0,35.841,29.383,65,65.5,65H100v290h130V130z M160,220c-11.046,0-20-8.954-20-20s8.954-20,20-20s20,8.954,20,20
		S171.046,220,160,220z"/>
	<circle id="XMLID_89_" style="fill:#FFC477;" cx="300" cy="310" r="20"/>
	<circle id="XMLID_90_" style="fill:#FFC477;" cx="300" cy="390" r="20"/>
	<circle id="XMLID_91_" style="fill:#FFA733;" cx="160" cy="200" r="20"/>
</g>
<g>
</g>
<g>
</g>
<g>
</g>
<g>
</g>
<g>
</g>
<g>
</g>
<g>
</g>
<g>
</g>
<g>
</g>
<g>
</g>
<g>
</g>
<g>
</g>
<g>
</g>
<g>
</g>
<g>
</g>
</svg>
