<?xml version="1.0" encoding="iso-8859-1"?>
<!-- Generator: Adobe Illustrator 19.0.0, SVG Export Plug-In . SVG Version: 6.00 Build 0)  -->
<svg version="1.1" id="Capa_1" xmlns="http://www.w3.org/2000/svg" xmlns:xlink="http://www.w3.org/1999/xlink" x="0px" y="0px"
	 viewBox="0 0 459.974 459.974" style="enable-background:new 0 0 459.974 459.974;" xml:space="preserve">
<g id="XMLID_2_">
	<path id="XMLID_4_" style="fill:#B39A7C;" d="M230.288,410.069c-6.887,0-13.663-0.468-20.303-1.357v51.263h40.004v-51.328
		c-6.446,0.86-13.021,1.317-19.702,1.34V410.069z"/>
	<path id="XMLID_7_" style="fill:#FFDE55;" d="M356.636,178.968c1.787-9.001,2.365-17.835,2.365-26.975V94.959h-35.965
		l-6.001-26.003C307.705,28.952,272.133,0,229.858,0v0.156c0.05,0,0.098-0.003,0.148-0.003l0.281,409.833
		c6.68-0.023,13.256-0.48,19.702-1.34c74.115-9.883,131.015-73.32,131.015-150.192v-79.486H356.636z"/>
	<path id="XMLID_10_" style="fill:#FFEB99;" d="M230.288,409.986L230.006,0.153c-0.05,0-0.098,0.003-0.148,0.003
		c-42.223,0.068-77.89,29.106-86.881,68.505c0-0.016-6.394,26.298-6.394,26.298h-35.611v57.034c0,9.14,0.578,17.974,2.365,26.975
		H78.97v79.486c0,76.847,56.926,140.332,131.015,150.257c6.64,0.889,13.415,1.357,20.303,1.357V409.986z"/>
</g>
<g>
</g>
<g>
</g>
<g>
</g>
<g>
</g>
<g>
</g>
<g>
</g>
<g>
</g>
<g>
</g>
<g>
</g>
<g>
</g>
<g>
</g>
<g>
</g>
<g>
</g>
<g>
</g>
<g>
</g>
</svg>
